<svg id="Capa_1" data-name="Capa 1" xmlns="http://www.w3.org/2000/svg" viewBox="0 0 218.5 32.5"><defs><style>.cls-1{fill:#2abaf3;}.cls-2{fill:#f0f1f1;}</style></defs><title>logo-programar-dark</title><path class="cls-1" d="M22.52,9.43a1.5,1.5,0,0,0,.36-1,1.45,1.45,0,0,0-.41-1.08,1.49,1.49,0,0,0-1.1-.41,1.9,1.9,0,0,0-.52.08,9.7,9.7,0,0,0-.95.38L7.22,13.3l-.13.08c-1.18.54-1.77,1.17-1.77,1.89S5.88,16.58,7,17.1l.3.13L19.89,23a6.2,6.2,0,0,0,.84.32,2.43,2.43,0,0,0,.63.09,1.5,1.5,0,0,0,1.1-.41A1.58,1.58,0,0,0,22.53,21a3.62,3.62,0,0,0-1.23-.83L10.91,15.2l10.38-4.93a3.77,3.77,0,0,0,1.22-.84m170.7-7.11a1.21,1.21,0,0,0-.87.37A4.86,4.86,0,0,0,191.54,4L182.2,24l0,.06a4.06,4.06,0,0,0-.43,1.44,1.43,1.43,0,0,0,.57,1.15,2,2,0,0,0,1.3.46,1.15,1.15,0,0,0,.86-.37,4.44,4.44,0,0,0,.8-1.31l9.36-20a8.08,8.08,0,0,0,.37-.9,2.19,2.19,0,0,0,.09-.61,1.41,1.41,0,0,0-.57-1.15,2,2,0,0,0-1.29-.46m19.26,11.06-.13-.08L199.71,7.4a8.09,8.09,0,0,0-.93-.37,2,2,0,0,0-.58-.09,1.41,1.41,0,0,0-1.07.41,1.51,1.51,0,0,0-.4,1.08,1.49,1.49,0,0,0,.36,1,3.68,3.68,0,0,0,1.21.84l10.4,4.93-10.4,4.93a3.51,3.51,0,0,0-1.22.83,1.44,1.44,0,0,0-.35,1,1.51,1.51,0,0,0,.4,1.09,1.45,1.45,0,0,0,1.07.4,2.47,2.47,0,0,0,.64-.09,5.4,5.4,0,0,0,.82-.32l12.62-5.79.26-.13c1.14-.51,1.7-1.13,1.7-1.83s-.59-1.34-1.77-1.89"/><path class="cls-1" d="M39.57,7a9.59,9.59,0,0,0-5.79-1.47H27.32a2.17,2.17,0,0,0-1.47.41,1.72,1.72,0,0,0-.45,1.32,1.75,1.75,0,0,0,.43,1.27A1.63,1.63,0,0,0,27.06,9h.27V20.63h-.27a1.66,1.66,0,0,0-1.24.43,1.74,1.74,0,0,0-.42,1.26,1.71,1.71,0,0,0,.45,1.33,2.16,2.16,0,0,0,1.48.41h5.41a2.09,2.09,0,0,0,1.44-.41,1.74,1.74,0,0,0,.44-1.33A1.68,1.68,0,0,0,34.18,21a2.12,2.12,0,0,0-1.44-.39H31.12v-3.2h2.66a9.23,9.23,0,0,0,5.8-1.55,5.47,5.47,0,0,0,2-4.57,5.08,5.08,0,0,0-2-4.33m-3.45,6.3a5,5,0,0,1-2.77.63H31.12V9h2.22a5,5,0,0,1,2.74.63,2,2,0,0,1,1,1.81,2.11,2.11,0,0,1-.93,1.88"/><path class="cls-1" d="M96.91,13.49a3.33,3.33,0,0,1,1.76-.67,3.54,3.54,0,0,1,1.34.52,3.64,3.64,0,0,0,1.67.51,2.25,2.25,0,0,0,1.61-.59,2,2,0,0,0,.62-1.49,2.23,2.23,0,0,0-.9-1.86,3.92,3.92,0,0,0-2.45-.7,6.66,6.66,0,0,0-3.18.78,12.61,12.61,0,0,0-3.19,2.61V10.28A.6.6,0,0,0,94,9.79a1.07,1.07,0,0,0-.66-.18H84.51a1.18,1.18,0,0,0-.68.17.55.55,0,0,0-.23.48v.82a4.77,4.77,0,0,0-1.84-1.39,6.34,6.34,0,0,0-2.47-.45,7.33,7.33,0,0,0-5.34,2,6.71,6.71,0,0,0-1.5,2.19,7.15,7.15,0,0,0-1.61-2.08,8.85,8.85,0,0,0-6.16-2.13,8.82,8.82,0,0,0-6.13,2.13A7.66,7.66,0,0,0,58,12a1.57,1.57,0,0,0,0-.22,2.21,2.21,0,0,0-.91-1.86,3.9,3.9,0,0,0-2.45-.7,6.7,6.7,0,0,0-3.18.78,12.74,12.74,0,0,0-3.18,2.61V10.28A.57.57,0,0,0,48,9.79a1,1,0,0,0-.65-.18H44A2.29,2.29,0,0,0,42.5,10a1.71,1.71,0,0,0-.43,1.31,1.7,1.7,0,0,0,.44,1.32A2.27,2.27,0,0,0,44,13h.67v7.59H43.5A2.32,2.32,0,0,0,42,21a1.62,1.62,0,0,0-.45,1.29A1.71,1.71,0,0,0,42,23.65a2.29,2.29,0,0,0,1.53.41h8.74a2.21,2.21,0,0,0,1.5-.41,1.71,1.71,0,0,0,.45-1.33A1.63,1.63,0,0,0,53.75,21a2.26,2.26,0,0,0-1.5-.39H48.55V15.57A16.13,16.13,0,0,1,51,13.49a3.32,3.32,0,0,1,1.76-.67,3.55,3.55,0,0,1,1.34.52,3.66,3.66,0,0,0,1.66.51,2.45,2.45,0,0,0,1.15-.25,7.42,7.42,0,0,0-.7,3.26,7,7,0,0,0,2.37,5.47,8.82,8.82,0,0,0,6.14,2.13,8.86,8.86,0,0,0,6.16-2.13,7,7,0,0,0,1.78-2.46,6.75,6.75,0,0,0,1.24,1.69,7,7,0,0,0,5.13,2,8.31,8.31,0,0,0,2.26-.3,9.64,9.64,0,0,0,2.19-.95V23a4.21,4.21,0,0,1-.85,3,4.34,4.34,0,0,1-3.08.84,17.85,17.85,0,0,1-2.12-.14c-.76-.1-1.21-.14-1.34-.14a1.76,1.76,0,0,0-1.28.47,1.61,1.61,0,0,0-.48,1.22,1.66,1.66,0,0,0,1.2,1.58,10.3,10.3,0,0,0,3.74.5q4.12,0,6-1.55t1.86-5V13h3.58v7.59H89.45a2.36,2.36,0,0,0-1.54.39,1.65,1.65,0,0,0-.44,1.29,1.69,1.69,0,0,0,.45,1.33,2.28,2.28,0,0,0,1.53.41H98.2a2.22,2.22,0,0,0,1.5-.41,1.72,1.72,0,0,0,.45-1.33A1.63,1.63,0,0,0,99.7,21a2.27,2.27,0,0,0-1.5-.39H94.5V15.57a16.58,16.58,0,0,1,2.41-2.08M67.69,19.92a4.3,4.3,0,0,1-6,0,4.27,4.27,0,0,1-1.18-3.1,4.16,4.16,0,0,1,1.18-3.06,4.41,4.41,0,0,1,6,0,4.16,4.16,0,0,1,1.18,3.06,4.25,4.25,0,0,1-1.19,3.1m14.59-.66a3.5,3.5,0,0,1-5.1,0,4,4,0,0,1-1-2.79,4,4,0,0,1,1-2.83,3.49,3.49,0,0,1,5.1,0,4,4,0,0,1,1,2.83,4,4,0,0,1-1,2.79"/><path class="cls-1" d="M137,21.06a1.37,1.37,0,0,0-1.1-.43h-.22V14.71a7.21,7.21,0,0,0-.94-4.22,3.57,3.57,0,0,0-3.06-1.26,4.59,4.59,0,0,0-1.85.37,4.45,4.45,0,0,0-1.51,1.07,3.07,3.07,0,0,0-2.75-1.44,4,4,0,0,0-1.81.42,3.87,3.87,0,0,0-1.39,1.21,1.53,1.53,0,0,0-.23-1,1.13,1.13,0,0,0-.87-.26h-2.11a1.81,1.81,0,0,0-1.32.4,1.78,1.78,0,0,0-.4,1.3,1.88,1.88,0,0,0,.38,1.27,1.37,1.37,0,0,0,1.12.45h.22v7.59h-1.79V14.84q0-3.07-1.44-4.35T111.1,9.21a13.84,13.84,0,0,0-5,.74c-1.24.5-1.85,1.16-1.85,2a1.49,1.49,0,0,0,.45,1.13,1.66,1.66,0,0,0,1.19.43,6.36,6.36,0,0,0,2.35-.76,6.45,6.45,0,0,1,2.64-.77,2.6,2.6,0,0,1,2,.74,3,3,0,0,1,.68,2.14v.3c-.71-.12-1.33-.2-1.9-.25s-1.09-.08-1.59-.08a9,9,0,0,0-5.22,1.3A4.17,4.17,0,0,0,103,19.78a4.31,4.31,0,0,0,1.43,3.42,5.85,5.85,0,0,0,4,1.25,9.76,9.76,0,0,0,2.94-.46A10.65,10.65,0,0,0,114,22.68a2.19,2.19,0,0,0,.64,1.08,1.88,1.88,0,0,0,1.16.3h6.82a1.83,1.83,0,0,0,1.31-.4,1.88,1.88,0,0,0,.39-1.34,1.89,1.89,0,0,0-.36-1.27,1.39,1.39,0,0,0-1.11-.43h-.23V15.17a3.72,3.72,0,0,1,.44-2,1.38,1.38,0,0,1,1.22-.7,1,1,0,0,1,.94.51,3,3,0,0,1,.31,1.56v8.84a.58.58,0,0,0,.25.49,1.12,1.12,0,0,0,.67.18h2.66a1.81,1.81,0,0,0,1.31-.4,1.85,1.85,0,0,0,.39-1.34,1.9,1.9,0,0,0-.37-1.26,1.39,1.39,0,0,0-1.1-.43h-.23V15.17a3.79,3.79,0,0,1,.43-2,1.34,1.34,0,0,1,1.21-.69,1.05,1.05,0,0,1,1,.51,3,3,0,0,1,.33,1.56v8.84a.59.59,0,0,0,.23.49,1.05,1.05,0,0,0,.66.18h2.66a1.8,1.8,0,0,0,1.31-.4,1.9,1.9,0,0,0,.38-1.34,1.91,1.91,0,0,0-.37-1.26m-23.42-1a7,7,0,0,1-1.88,1,6.54,6.54,0,0,1-2,.31,2.91,2.91,0,0,1-1.79-.48,1.63,1.63,0,0,1-.62-1.38,1.77,1.77,0,0,1,1-1.59,5.26,5.26,0,0,1,2.7-.58,9.74,9.74,0,0,1,1.22.08c.44.06.92.14,1.44.26Z"/><path class="cls-2" d="M141.19,18.4a3.37,3.37,0,0,0-2.34.82,2.94,2.94,0,0,0,0,4.24,3.81,3.81,0,0,0,4.71,0,3,3,0,0,0,0-4.25,3.42,3.42,0,0,0-2.37-.81"/><path class="cls-2" d="M179.83,21.06a2,2,0,0,0-1.37-.42H178l-2.55-4-.11-.16a2.63,2.63,0,0,0-.8-.91,5.42,5.42,0,0,0,2.72-1.89,5,5,0,0,0,.94-3,4.47,4.47,0,0,0-1.7-3.8,8.19,8.19,0,0,0-5-1.29h-7.21a2.22,2.22,0,0,0-1.5.41,1.7,1.7,0,0,0-.46,1.32,1.74,1.74,0,0,0,.44,1.27A1.67,1.67,0,0,0,164,9h.27V20.64H164a2.68,2.68,0,0,0-.47,0,2.63,2.63,0,0,0-.48,0h-.26l-5-13.57V7a2,2,0,0,0-2-1.5H150a2.3,2.3,0,0,0-1.52.41A1.69,1.69,0,0,0,148,7.25a1.65,1.65,0,0,0,.46,1.31A2.31,2.31,0,0,0,150,9h1.25l-4.18,11.66h-.27a1.76,1.76,0,0,0-1.29.43,1.7,1.7,0,0,0-.44,1.26,1.68,1.68,0,0,0,.46,1.33,2.29,2.29,0,0,0,1.53.41h4a2.28,2.28,0,0,0,1.53-.41,1.66,1.66,0,0,0,.46-1.33,1.61,1.61,0,0,0-.46-1.29,2.33,2.33,0,0,0-1.53-.4h-.54l.67-1.83H158l.64,1.83h-.54a2.34,2.34,0,0,0-1.53.39,1.62,1.62,0,0,0-.45,1.29,1.7,1.7,0,0,0,.45,1.34,2.32,2.32,0,0,0,1.53.4h4.7a3.77,3.77,0,0,0,.74-.07,3.83,3.83,0,0,0,.74.07h4a2.23,2.23,0,0,0,1.51-.41,1.71,1.71,0,0,0,.45-1.33,1.51,1.51,0,0,0-1.7-1.68h-.25V16.51h1.47a1.13,1.13,0,0,1,.6.18,1.67,1.67,0,0,1,.5.53l3.83,5.89,0,0a1.87,1.87,0,0,0,1.66.92h1.92a2.28,2.28,0,0,0,1.52-.41,1.67,1.67,0,0,0,.46-1.33,1.61,1.61,0,0,0-.46-1.26m-27.52-5.49L154.58,9l2.26,6.59Zm20.63-2.77a5.32,5.32,0,0,1-2.74.51H168.1V8.88h2.63A3.92,3.92,0,0,1,173,9.4a2,2,0,0,1,.71,1.7,1.88,1.88,0,0,1-.78,1.7"/></svg>