<svg xmlns="http://www.w3.org/2000/svg" xmlns:xlink="http://www.w3.org/1999/xlink" id="Capa_1" data-name="Capa 1" viewBox="0 0 519.75 576.38"><defs><style>.cls-1,.cls-21,.cls-24{fill:none;}.cls-2{fill:#c94a27;}.cls-3{fill:#411e11;}.cls-4{fill:#a33f23;}.cls-5{fill:#fbc99c;}.cls-6{fill:#251013;}.cls-7{fill:#5d5e5f;}.cls-11,.cls-8{fill:#cd9565;}.cls-8{fill-rule:evenodd;}.cls-9{fill:#a26c39;}.cls-10{fill:#bf5228;}.cls-12{fill:#80a23e;}.cls-13{fill:#90af3d;}.cls-14{fill:#d9e2ca;}.cls-15{fill:#010101;}.cls-16{clip-path:url(#clip-path);}.cls-17{fill:#fff;}.cls-18{fill:#e4f4f8;opacity:0.15;}.cls-19{fill:#753d36;}.cls-20{fill:#874640;}.cls-21{stroke:#a65954;stroke-miterlimit:10;stroke-width:13.93px;}.cls-21,.cls-24{stroke-linecap:round;}.cls-22{fill:#cbc0c1;}.cls-23{fill:#a59b9c;}.cls-24{stroke:#fff;stroke-linejoin:round;stroke-width:8.71px;}.cls-25{fill:#5f322d;}.cls-26{fill:#d1d3d4;}</style><clipPath id="clip-path"><circle class="cls-1" cx="399.19" cy="203.54" r="92.57" transform="translate(-46.34 155.76) rotate(-20.9)"></circle></clipPath></defs><title>Toto-niveles</title><path class="cls-2" d="M296.11,361.47s18.65,55,63.41,51.28l-1.86,12.12s-51.29,0-66.21-43.83"></path><path class="cls-3" d="M281.61,120.09s29-62.14,51.09-77.33c0,0,10.84-11.41,20.5,9.3,0,0,27.82,51.46,32,90.12"></path><path class="cls-2" d="M129.73,138s9.82-21.41,59.38-33.14,56.61,5.52,56.61,5.52,35.9-29,31.76-66.28c0,0,42.8,4.14,15.19,51.09l-8.28,11s29-18,30.38-42.81c0,0,41.42,37.28-2.76,49.71,0,0,73.18-4.14,95.27,51.09,0,0,29,106.32,85.61,127,0,0,18,5.52-17.95,27.62,0,0-38.66,5.52-96.66-6.9,0,0-147.75-26.23-179.5,11s-99.42,40-85.61,6.9l9.67-16.57s-41.42,34.52-51.09-6.9c0,0-5.52-12.43,11-29,0,0-44.19,16.57-35.9-23.47,0,0,4.14-27.62,26.24-31.76,0,0-35.9-2.76-4.14-29C69,193.27,118.68,171.18,129.73,138Z"></path><path class="cls-4" d="M152.64,118.19c-18.38,10-22.92,19.85-22.92,19.85-8.21,24.63-37.76,43.14-52.4,51,8.46,3.57,18.52,5.42,22.32,4.88,6.92-1,30.62-22.72,32.6-38.53S154,119.86,154,119.86Z"></path><path class="cls-5" d="M492.88,291.31c-9.29-3.4-17.84-9.12-25.64-16.29-26.21-2.1-51.69,13.52-51.69,13.52-93.89,37.28-240.26-71.8-240.26-71.8-35.9-48.33-89.75-30.38-89.75-30.38l-1.61-1a161.71,161.71,0,0,1-15,7.94c-31.76,26.24,4.14,29,4.14,29C51,226.41,46.88,254,46.88,254c-8.28,40,35.9,23.47,35.9,23.47-16.57,16.57-11,29-11,29,9.67,41.42,51.09,6.9,51.09,6.9L113.16,330c-13.81,33.14,53.85,30.38,85.61-6.9s179.5-11,179.5-11c58,12.43,96.66,6.9,96.66,6.9C510.83,296.83,492.88,291.31,492.88,291.31Z"></path><path class="cls-3" d="M136.41,129.44S167,53.81,194.62,35.86c0,0,8.29-5.52,19.33,15.19l31.76,59.37S151.59,108.73,136.41,129.44Z"></path><path class="cls-3" d="M451.45,284.4s33.14-9.67,41.42,6.9c0,0-4.14,11-17.95,15.19C474.93,306.49,457,313.4,451.45,284.4Z"></path><path class="cls-2" d="M158.45,117.38l5.31-16.83c14.6-35.85,38-52.89,38.28-53.05l.8,1.12c-.23.17-23.36,17-37.79,52.4l-2.74,8.69c5.38-7.09,18.2-23,25.33-23.38a3.91,3.91,0,0,1,3.3,1.29l.27.3L187,100.63c4.12-2.26,15.38-8.23,22-9.88l.14,0,.14,0c.23,0,5.56.91,6.33,4.13.53,2.24-1.2,4.77-5.3,7.74l-4.62,5.28-1-.91,4.78-5.44c3.54-2.56,5.21-4.75,4.83-6.35-.45-1.86-3.68-2.82-5.06-3.06-7.86,2-22.89,10.48-23,10.57l-1.56.88,5.1-15.3a2.63,2.63,0,0,0-1.92-.57c-8.34.49-26.57,25.87-26.75,26.13Z"></path><path class="cls-2" d="M226.38,474.7s0,33.39-11,48.58c0,0-16.57,13.81-1.38,16.57,0,0,9.83,3.84,13.83-1.49,0,0,7.34,5.34,14-.67,0,0,10.67,0,4-10.67,0,0,5.34-8-11.34-6.67h-5.34s10.67-8.67,11.34-37.36"></path><path class="cls-2" d="M267.81,473.65s7.93,34.44-3.11,49.63c0,0-16.57,13.81-1.38,16.57,0,0,9.83,3.84,13.83-1.49,0,0,7.34,5.34,14-.67,0,0,10.67,0,4-10.67,0,0,5.33-8-11.34-6.67h-5.34s8-16.68,1.33-48"></path><path class="cls-6" d="M286,239c0,6.35-6.32,11.49-14.13,11.49h-7.06c-7.8,0-14.13-5.14-14.13-11.49V192.36c0-6.34,6.32-11.49,14.13-11.49h7.06c7.8,0,14.13,5.14,14.13,11.49Z"></path><ellipse class="cls-7" cx="270.28" cy="216.28" rx="9.59" ry="23.65"></ellipse><path class="cls-6" d="M397.89,239c0,6.35-6.32,11.49-14.13,11.49H376.7c-7.8,0-14.13-5.14-14.13-11.49V192.36c0-6.34,6.32-11.49,14.13-11.49h7.06c7.8,0,14.13,5.14,14.13,11.49Z"></path><ellipse class="cls-7" cx="382.12" cy="216.28" rx="9.59" ry="23.65"></ellipse><path class="cls-6" d="M226.08,295.88a11.79,11.79,0,0,1-8.57-3.22c-5.74-5.6-4.28-16.38-4.22-16.84a2.07,2.07,0,0,1,4.1.58h0c0,.09-1.22,9.18,3,13.3,1.88,1.83,4.6,2.42,8.3,1.8l.22,0c.14,0,13.85-.91,16.17-9a2.07,2.07,0,0,1,4,1.14c-3,10.59-18.19,11.91-19.81,12A20.05,20.05,0,0,1,226.08,295.88Z"></path><path class="cls-2" d="M318.9,196a18,18,0,0,1-18,17.95H238.81A18,18,0,0,1,220.86,196h0a18,18,0,0,1,17.95-18h62.14a18,18,0,0,1,18,18Z"></path><path class="cls-2" d="M349.27,213.36h56.61s4.14-37.13-30.38-37.13H345.13"></path><path class="cls-5" d="M234.67,302.35s13.81,8.28,15.19,30.38l2.76,22.09s23.47,15.19,29-2.76c0,0,1.38-37.28-12.43-53.85"></path><path class="cls-5" d="M274.71,331.18s64.9,24.13,5.52,143.52c0,0-33.14,29.21-53.85,0,0,0,15.07-61.25,9.27-96.66-.28-1.71-.61-3.36-1-4.95C226.38,338.8,247.09,323.56,274.71,331.18Z"></path><path class="cls-8" d="M260.43,484.8c-19.06,2.46-23.36-22.13-17.21-38.12s1.85-59,1.85-59c-7.38-22.13,4.08-56.1,4.08-56.1l-.14-.06c-12.92,5.21-19.7,19.41-14.34,41.59.38,1.58.71,3.24,1,4.95,5.8,35.41-9.27,96.66-9.27,96.66,11.22,15.83,26.1,14.5,37.37,10A17.29,17.29,0,0,0,260.43,484.8Z"></path><path class="cls-9" d="M278,374.38c-5.29,0-11.34-4.58-13.87-8.17a.69.69,0,1,1,1.13-.8c2.5,3.53,8.62,8.12,13.59,7.54,2.36-.28,4.1-1.75,5.16-4.39a8.56,8.56,0,0,0-.47-7.42c-1.63-3.15-4.76-5.78-8-7.66a16.48,16.48,0,0,1-7.09-3,.69.69,0,0,1,.6-1.2,27.21,27.21,0,0,1,7,2.9,12.77,12.77,0,0,0,7.11-.39A4,4,0,0,0,285.7,348c.07-2-.92-3.66-2.94-5-4.84-3.31-13.58-3.62-16.88-2.2a.69.69,0,1,1-.54-1.27c4.1-1.75,13.3-1,18.21,2.33,2.4,1.64,3.62,3.79,3.54,6.23a5.35,5.35,0,0,1-3.35,5,11.61,11.61,0,0,1-5.09.8,19.93,19.93,0,0,1,6.14,6.66,9.88,9.88,0,0,1,.52,8.57c-1.24,3.09-3.42,4.9-6.28,5.24A8.42,8.42,0,0,1,278,374.38Z"></path><path class="cls-2" d="M249.14,331.57s-26.9-1.6-25.52,37.06c0,0,8.28,69-5.52,96.66,0,0-5.52,17.95,24.85,22.09,0,0-13.81-9.67-9.67-33.14,0,0,7.51-44.69,2.37-76.2C235.66,378,229.81,344,249.14,331.57Z"></path><path class="cls-2" d="M225.15,461.15s7.33-58-49.48-81.86c0,0-73.31-22.6-100.19,19.55,0,0-13.44,18.33-1.22,45.21,0,0,2.44,49.48-20.77,31.15,0,0-16.5-27.49-23.21-14.05,0,0-7.33,5.5,4.28,16.49,0,0-17.72-2.44-10.39,18.33,0,0,3.67,10.39,17.72,11,0,0-14.05,20.77,16.49,26.88,0,0,94.08,23.83,128.29-37.88,0,0,8.55-14.05-1.83-33.6,0,0,4.89-31.77,37.26,7.33"></path><path class="cls-5" d="M131.1,527.18c8.73-2.78,10.3-8.54.63-9.53-13.3-1.38-23.61-1.94-35.85-8,10.26.12,26.07-3.65,31.6-13.36-14-3-26.4-.74-39.7-7.45,6.51-7.42,16.05-13.55,16.61-24.66.8-16.08-12.06.58-18.72,3.24,2.36-10,3.88-19.83,3.38-30.61-.1-2.21-.1-13.15-2.63-13.89-3.47-1-5.38,8.72-6.56,10.67-.82-11,1.77-23.24,7.69-32.63,4.4-7,19.1-14.75,17.9-23.91-11.82,3.63-22.62,10.31-30,21.81,0,0-13.44,18.33-1.22,45.21,0,0,2.44,49.48-20.77,31.15,0,0-16.5-27.49-23.21-14.05,0,0-7.33,5.5,4.28,16.49,0,0-17.72-2.44-10.39,18.33,0,0,3.67,10.39,17.72,11,0,0-14.05,20.77,16.49,26.88,0,0,50.06,12.67,90.42-4.42-5.06-.05-10.38,1.8-15.73,1.59-8.06-.31-14.72-2-22.48-4C117.27,527.74,124.43,529.31,131.1,527.18Z"></path><path class="cls-3" d="M241.8,537.69s10.67,0,4-10.67c0,0,5.34-8-11.34-6.67h-5.34s3.58-2.92,6.72-10.95c-1.15.09-2.05-.78-2.05-3.73,0-8-7.34-.67-7.34-.67,0-4.55-1.05-5.94-2.36-5.91-1.58,8.75-4.25,18-8.75,24.18,0,0-16.57,13.81-1.38,16.57,0,0,9.83,3.84,13.83-1.49C227.79,538.36,235.13,543.69,241.8,537.69Z"></path><path class="cls-3" d="M283.83,520.35h-5.34s2.83-5.9,3.72-17.28c-2.69-4.13-6.39.6-6.39.6,0-5.22-3.37-3.36-5.32-1.84-.31,8-1.81,16-5.8,21.45,0,0-16.57,13.81-1.38,16.57,0,0,9.83,3.84,13.83-1.49,0,0,7.34,5.34,14-.67,0,0,10.67,0,4-10.67C295.17,527,300.5,519,283.83,520.35Z"></path><path class="cls-2" d="M240.47,333.57s8.67-13.34-8.67-26.68l8.67-1.34s12,10.67,8.67,26Z"></path><path class="cls-6" d="M296.51,210.49c0,1.77-1,3.21-2.33,3.21h-52.7c-1.29,0-2.34-1.44-2.34-3.21h0c0-1.77,1-3.21,2.34-3.21h52.7c1.29,0,2.33,1.44,2.33,3.21Z"></path><path class="cls-6" d="M412.58,210.49c0,1.77-1,3.21-2.33,3.21h-52.7c-1.29,0-2.34-1.44-2.34-3.21h0c0-1.77,1-3.21,2.34-3.21h52.7c1.29,0,2.33,1.44,2.33,3.21Z"></path><path class="cls-10" d="M457.32,286.47s21.24-6.66,32.08,4.17c0,0-30-2.92-30.41,2.92C459,293.55,455.24,289.8,457.32,286.47Z"></path><path class="cls-11" d="M241.37,307.13C231.6,291,185,325.83,185,325.83c-35.9,35.9-63.52,9.67-63.52,9.67-3.28-2.81-4-8-3.55-13.63L113.16,330c-13.81,33.14,53.85,30.38,85.61-6.9,6.7-7.87,18.59-12.9,33.15-16C231.88,307,241.42,307.21,241.37,307.13Z"></path><path class="cls-11" d="M118.62,316.53a100.11,100.11,0,0,1,5.58-18.32c-23.47,29-38.66,12.43-38.66,12.43-15.19-12.43,6.9-46.95,6.9-46.95-31.76,20.71-38.66-1.38-38.66-1.38-6.9-20.71,29-42.8,29-42.8l-8.28-4.14c-24.31-9.72,22-28,33.43-32.24a81.84,81.84,0,0,0-22.38,3.25l-1.61-1a161.71,161.71,0,0,1-15,7.94c-31.76,26.24,4.14,29,4.14,29C51,226.41,46.88,254,46.88,254c-8.28,40,35.9,23.47,35.9,23.47-16.57,16.57-11,29-11,29C79.51,339.83,107.84,324,118.62,316.53Z"></path><path class="cls-11" d="M56.54,513.61s-35.9-13.81-19.33-24.85a56.58,56.58,0,0,1-3.79-11.2c-3.79-.12-15.44.88-9.25,18.41,0,0,3.67,10.39,17.72,11,0,0-14.05,20.77,16.49,26.88,0,0,4.41,1.11,11.64,2.23C58.58,531.88,39.3,522.75,56.54,513.61Z"></path><path class="cls-11" d="M30.27,461.15s-6.72,5.05,2.94,15.15c-.68-4.82.4-8.79,6.76-6.88,0,0,31.76,30.38,37.28,5.52,0,0,13.47-17.86,2.59-41.38-6.05-13.09-5.31-27.44-1.09-39.27a49.35,49.35,0,0,0-3.28,4.54S62,417.17,74.26,444c0,0,2.44,49.48-20.77,31.15C53.49,475.2,37,447.71,30.27,461.15Z"></path><line class="cls-11" x1="240.47" y1="305.55" x2="273.33" y2="306.49"></line><polygon class="cls-11" points="241.37 307.75 273.96 304.06 249.37 324.96 241.37 307.75"></polygon><path class="cls-12" d="M155.69,412.82c-2.6-2-3.3-5.57-1.56-7.91l23-30.8c1.74-2.34,5.27-2.59,7.87-.56l51.63,40.22c2.6,2,3.3,5.57,1.56,7.91l-23,30.8c-3.73,5.17-6,5-8.64,3Z"></path><path class="cls-13" d="M153.61,413.39c-2.6-2-3.3-5.57-1.56-7.91l23-30.8c1.75-2.34,5.27-2.59,7.87-.56l51.63,40.22c2.6,2,3.3,5.57,1.56,7.91l-23,30.8c-1.74,2.34-5.27,2.59-7.87.56Z"></path><path class="cls-14" d="M238.32,410.06l-1.44,9s-19.71,27.5-27.11,35.42l-5.12-8.39"></path><path class="cls-12" d="M155.84,401.2c-2.6-2-3.3-5.57-1.56-7.91l23-30.8c1.75-2.34,5.27-2.59,7.87-.56l51.63,40.22c2.6,2,3.3,5.57,1.56,7.91l-23,30.8c-1.74,2.34-5.27,2.59-7.87.56Z"></path><path class="cls-13" d="M152.85,401.41c-2.6-2-3.3-5.57-1.56-7.91l23-30.8c1.74-2.34,5.27-2.59,7.87-.56l51.63,40.22c2.6,2,3.3,5.57,1.56,7.91l-23,30.8c-1.74,2.34-5.27,2.59-7.87.56Z"></path><path class="cls-12" d="M148.22,410.27a2.72,2.72,0,0,1-1-3.13l2.1-9.1a1.68,1.68,0,0,1,2.67-.33l59.9,43.12a2.72,2.72,0,0,1,1,3.13l-4.12,11.36a1.68,1.68,0,0,1-2.67.33Z"></path><path class="cls-2" d="M178.86,422.35s20.8-104.56,61.65-80.53c0,0,5.86,7.89-3.92,13.19,0,0-27.75,7.14-46,73.3"></path><path class="cls-3" d="M190.78,444.34s-8.91,5.15-10.09-4c0,0-15.84-1.22-13.14-13.75,0,0-.36-7.08,8.25-6.37,0,0,7.44-.87,15.18,7.59,0,0,7.44,6.72,11.41,6.47,0,0,3.16,5.24-1,6.88,0,0-6.31,4.69-9.73-4.53Z"></path><path class="cls-3" d="M353.31,414.17c2.51-3.69,9.19-22.82,14.84-6.8,4.05-1.34,9.09-2.15,12.45,1.76,3.53,4.11,3.82,10.4-1.64,11,2.31,3.62,1.39,6.16-2.43,6.61,7.63,16.37-38.7,6.64-20.68-12.21"></path><path class="cls-15" d="M317.79,226.43s18.61-10.63,27.91,0v12s-11.3-12-29.24,0"></path><path class="cls-15" d="M311.72,157.31H200.64c-6.38,0-11.56,4.73-11.56,10.56v87.87c0,5.83,5.17,10.56,11.56,10.56H311.72c6.38,0,11.56-4.73,11.56-10.56V167.87C323.28,162,318.1,157.31,311.72,157.31ZM309,246.4c0,4.59-4.07,8.32-9.1,8.32H212.44c-5,0-9.1-3.72-9.1-8.32v-69.2c0-4.59,4.07-8.32,9.1-8.32h87.47c5,0,9.1,3.72,9.1,8.32Z"></path><g class="cls-16"><circle class="cls-17" cx="407.28" cy="287.88" r="244.01"></circle><path class="cls-2" d="M297.56,374.28s22,64.87,74.77,60.47L370.13,449s-60.47,0-78.07-51.68"></path><path class="cls-3" d="M280.47,89.66s34.19-73.27,60.24-91.18c0,0,12.78-13.46,24.18,11,0,0,32.81,60.68,37.69,106.26"></path><path class="cls-2" d="M101.37,110.83s11.58-25.24,70-39.08,66.75,6.51,66.75,6.51S280.47,44.07,275.58.11c0,0,50.47,4.88,17.91,60.24l-9.77,13s34.19-21.17,35.82-50.47c0,0,48.85,44-3.26,58.61,0,0,86.29-4.88,112.34,60.24,0,0,34.19,125.37,100.95,149.79,0,0,21.17,6.51-21.16,32.56,0,0-45.59,6.51-114-8.14,0,0-174.21-30.93-211.66,13S65.55,376.22,81.83,337.14l11.4-19.54S44.38,358.31,33,309.46c0,0-6.51-14.65,13-34.19,0,0-52.1,19.54-42.33-27.68,0,0,4.89-32.56,30.94-37.45,0,0-42.33-3.26-4.88-34.19C29.73,176,88.34,149.9,101.37,110.83Z"></path><path class="cls-4" d="M128.39,87.42c-21.67,11.79-27,23.41-27,23.41-9.68,29-44.52,50.87-61.79,60.18,10,4.21,21.84,6.39,26.32,5.75C74,175.59,102,150,104.33,131.33S130,89.4,130,89.4Z"></path><path class="cls-5" d="M529.58,291.55c-11-4-21-10.75-30.23-19.2-30.9-2.48-60.95,15.94-60.95,15.94-110.72,44-283.3-84.66-283.3-84.66-42.33-57-105.83-35.82-105.83-35.82l-1.89-1.22A190.68,190.68,0,0,1,29.73,176c-37.45,30.94,4.88,34.19,4.88,34.19C8.56,215,3.68,247.59,3.68,247.59-6.09,294.81,46,275.27,46,275.27c-19.54,19.54-13,34.19-13,34.19,11.4,48.85,60.24,8.14,60.24,8.14l-11.4,19.54C65.55,376.22,145.33,373,182.78,329s211.66-13,211.66-13c68.38,14.65,114,8.14,114,8.14C550.74,298.06,529.58,291.55,529.58,291.55Z"></path><path class="cls-3" d="M109.24,100.69S145.33,11.51,177.89-9.66c0,0,9.77-6.51,22.8,17.91l37.45,70S127.15,76.27,109.24,100.69Z"></path><path class="cls-3" d="M480.73,283.41s39.08-11.4,48.84,8.14c0,0-4.88,13-21.16,17.91C508.41,309.46,487.25,317.6,480.73,283.41Z"></path><path class="cls-2" d="M135.24,86.46l6.27-19.84c17.22-42.27,44.86-62.36,45.14-62.56l.95,1.32c-.27.2-27.55,20-44.56,61.79L139.8,77.42c6.34-8.36,21.45-27.07,29.87-27.57a4.61,4.61,0,0,1,3.89,1.52l.32.35-5,15C173.75,64,187,57,194.78,55.06l.16,0,.16,0c.27,0,6.56,1.08,7.46,4.86.63,2.64-1.41,5.62-6.25,9.13l-5.45,6.22-1.23-1.07,5.64-6.42c4.18-3,6.14-5.6,5.7-7.49-.53-2.2-4.34-3.32-6-3.61-9.27,2.38-27,12.36-27.17,12.46l-1.84,1,6-18a3.1,3.1,0,0,0-2.26-.67c-9.84.58-31.32,30.51-31.54,30.81Z"></path><path class="cls-2" d="M215.34,507.81s0,39.37-13,57.28c0,0-19.54,16.28-1.63,19.54,0,0,11.59,4.53,16.31-1.76,0,0,8.65,6.29,16.52-.79,0,0,12.59,0,4.72-12.59,0,0,6.29-9.44-13.37-7.87h-6.29s12.59-10.23,13.37-44.05"></path><path class="cls-2" d="M264.19,506.56s9.35,40.61-3.67,58.52c0,0-19.54,16.28-1.63,19.54,0,0,11.59,4.53,16.31-1.76,0,0,8.65,6.29,16.52-.79,0,0,12.59,0,4.72-12.59,0,0,6.29-9.44-13.37-7.87h-6.29S286.22,542,278.36,505"></path><path class="cls-6" d="M285.69,229.89c0,7.48-7.46,13.54-16.66,13.54h-8.33c-9.2,0-16.66-6.06-16.66-13.54v-55c0-7.48,7.46-13.54,16.66-13.54H269c9.2,0,16.66,6.06,16.66,13.54Z"></path><ellipse class="cls-7" cx="267.1" cy="203.09" rx="11.31" ry="27.89"></ellipse><path class="cls-6" d="M417.57,229.89c0,7.48-7.46,13.54-16.66,13.54h-8.33c-9.2,0-16.66-6.06-16.66-13.54v-55c0-7.48,7.46-13.54,16.66-13.54h8.33c9.2,0,16.66,6.06,16.66,13.54Z"></path><ellipse class="cls-7" cx="398.98" cy="203.09" rx="11.31" ry="27.89"></ellipse><path class="cls-6" d="M215,297a13.9,13.9,0,0,1-10.11-3.8c-6.77-6.6-5.05-19.31-5-19.85a2.44,2.44,0,0,1,4.84.68h0c0,.11-1.44,10.82,3.56,15.68,2.22,2.16,5.42,2.85,9.78,2.13l.26,0c.16,0,16.34-1.07,19.07-10.65a2.44,2.44,0,0,1,4.7,1.34c-3.57,12.49-21.45,14-23.36,14.17A23.65,23.65,0,0,1,215,297Z"></path><path class="cls-2" d="M324.43,179.21a21.17,21.17,0,0,1-21.17,21.17H230a21.17,21.17,0,0,1-21.17-21.17h0A21.16,21.16,0,0,1,230,158h73.27a21.17,21.17,0,0,1,21.17,21.17Z"></path><path class="cls-2" d="M360.25,199.64H427s4.89-43.79-35.82-43.79H355.36"></path><path class="cls-5" d="M225.11,304.58s16.28,9.77,17.91,35.82l3.26,26.05s27.68,17.91,34.19-3.26c0,0,1.63-44-14.65-63.5"></path><path class="cls-5" d="M272.33,338.57s76.52,28.46,6.51,169.23c0,0-39.08,34.45-63.5,0,0,0,17.77-72.22,10.94-114-.33-2-.72-4-1.17-5.83C215.34,347.56,239.76,329.58,272.33,338.57Z"></path><path class="cls-8" d="M255.49,519.72c-22.47,2.9-27.55-26.1-20.3-44.95s2.18-69.59,2.18-69.59c-8.7-26.1,4.81-66.16,4.81-66.16L242,339c-15.24,6.15-23.23,22.88-16.91,49,.45,1.87.84,3.82,1.17,5.83,6.84,41.76-10.94,114-10.94,114,13.23,18.67,30.77,17.1,44.06,11.75A20.39,20.39,0,0,0,255.49,519.72Z"></path><path class="cls-9" d="M276.23,389.51c-6.24,0-13.37-5.4-16.36-9.63a.81.81,0,0,1,1.33-.94c2.95,4.17,10.17,9.57,16,8.89,2.79-.33,4.83-2.07,6.08-5.17a10.09,10.09,0,0,0-.55-8.75c-1.93-3.71-5.61-6.81-9.39-9a19.43,19.43,0,0,1-8.37-3.54.81.81,0,0,1,.71-1.42,32.08,32.08,0,0,1,8.21,3.42c3,.56,6.18.52,8.38-.46a4.71,4.71,0,0,0,3-4.43c.08-2.32-1.09-4.32-3.47-5.94-5.71-3.9-16-4.27-19.91-2.6a.81.81,0,1,1-.64-1.5c4.83-2.07,15.69-1.2,21.47,2.75,2.83,1.94,4.27,4.47,4.18,7.34a6.3,6.3,0,0,1-3.95,5.87,13.69,13.69,0,0,1-6,.94,23.5,23.5,0,0,1,7.24,7.86,11.65,11.65,0,0,1,.62,10.1c-1.47,3.65-4,5.78-7.4,6.18A9.92,9.92,0,0,1,276.23,389.51Z"></path><path class="cls-2" d="M242.18,339s-31.72-1.88-30.1,43.7c0,0,9.77,81.41-6.51,114,0,0-6.51,21.16,29.31,26,0,0-16.28-11.4-11.4-39.07,0,0,8.85-52.7,2.8-89.85C226.28,393.83,219.38,353.68,242.18,339Z"></path><path class="cls-2" d="M213.89,491.83s8.64-68.43-58.35-96.53c0,0-86.44-26.65-118.13,23,0,0-15.85,21.61-1.44,53.31,0,0,2.88,58.35-24.49,36.74,0,0-19.45-32.42-27.37-16.57,0,0-8.64,6.48,5,19.45,0,0-20.89-2.88-12.25,21.61,0,0,4.32,12.25,20.89,13,0,0-16.57,24.49,19.45,31.7,0,0,110.93,28.09,151.27-44.66,0,0,10.09-16.57-2.16-39.62,0,0,5.76-37.46,43.94,8.65"></path><path class="cls-5" d="M103,569.68c10.29-3.28,12.15-10.07.75-11.24C88,556.82,75.89,556.15,61.45,549c12.1.14,30.74-4.3,37.26-15.75-16.52-3.51-31.13-.87-46.82-8.79,7.68-8.75,18.93-16,19.58-29.08.95-19-14.22.69-22.08,3.82,2.78-11.84,4.58-23.39,4-36.09-.12-2.61-.12-15.5-3.1-16.38-4.09-1.2-6.34,10.29-7.73,12.58-1-12.93,2.08-27.41,9.07-38.48,5.19-8.22,22.52-17.39,21.11-28.19-13.94,4.28-26.68,12.15-35.33,25.72,0,0-15.85,21.61-1.44,53.31,0,0,2.88,58.35-24.49,36.74,0,0-19.45-32.42-27.37-16.57,0,0-8.64,6.48,5,19.45,0,0-20.89-2.88-12.25,21.61,0,0,4.32,12.25,20.89,13,0,0-16.57,24.49,19.45,31.7,0,0,59,14.94,106.62-5.21-6-.06-12.24,2.12-18.55,1.88-9.51-.37-17.36-2.38-26.51-4.74C86.68,570.34,95.12,572.19,103,569.68Z"></path><path class="cls-3" d="M233.52,582.08s12.59,0,4.72-12.59c0,0,6.29-9.44-13.37-7.87h-6.29s4.22-3.45,7.93-12.91c-1.35.1-2.42-.91-2.42-4.4,0-9.44-8.65-.79-8.65-.79,0-5.37-1.24-7-2.79-7-1.86,10.32-5,21.21-10.32,28.52,0,0-19.54,16.28-1.63,19.54,0,0,11.59,4.53,16.31-1.76C217,582.86,225.65,589.16,233.52,582.08Z"></path><path class="cls-3" d="M283.07,561.63h-6.29s3.34-7,4.39-20.38c-3.18-4.87-7.54.71-7.54.71,0-6.15-4-4-6.27-2.17-.36,9.41-2.14,18.83-6.84,25.3,0,0-19.54,16.28-1.63,19.54,0,0,11.59,4.53,16.31-1.76,0,0,8.65,6.29,16.52-.79,0,0,12.59,0,4.72-12.59C296.45,569.49,302.74,560.05,283.07,561.63Z"></path><path class="cls-2" d="M232,341.39s10.23-15.73-10.23-31.46L232,308.35s14.16,12.58,10.23,30.68Z"></path><path class="cls-6" d="M298,196.26c0,2.09-1.23,3.78-2.75,3.78H233.13c-1.52,0-2.75-1.7-2.75-3.78h0c0-2.09,1.23-3.79,2.75-3.79h62.14c1.52,0,2.75,1.7,2.75,3.79Z"></path><path class="cls-6" d="M434.89,196.26c0,2.09-1.23,3.78-2.75,3.78H370c-1.52,0-2.75-1.7-2.75-3.78h0c0-2.09,1.23-3.79,2.75-3.79h62.14c1.52,0,2.75,1.7,2.75,3.79Z"></path><path class="cls-10" d="M487.66,285.85s25.05-7.86,37.82,4.91c0,0-35.37-3.44-35.86,3.44C489.62,294.2,485.2,289.78,487.66,285.85Z"></path><path class="cls-11" d="M233,310.22c-11.52-19.08-66.52,22-66.52,22-42.33,42.33-74.9,11.4-74.9,11.4-3.86-3.31-4.73-9.44-4.19-16.08l-5.58,9.56C65.55,376.22,145.33,373,182.78,329c7.9-9.28,21.92-15.21,39.09-18.81C221.82,310.1,233.07,310.3,233,310.22Z"></path><path class="cls-11" d="M88.27,321.3a118,118,0,0,1,6.58-21.6c-27.68,34.19-45.59,14.65-45.59,14.65C31.36,299.69,57.41,259,57.41,259c-37.45,24.42-45.59-1.63-45.59-1.63C3.68,232.94,46,206.89,46,206.89L36.24,202c-28.67-11.47,25.94-33,39.42-38a96.5,96.5,0,0,0-26.39,3.83l-1.89-1.22A190.68,190.68,0,0,1,29.73,176c-37.45,30.94,4.88,34.19,4.88,34.19C8.56,215,3.68,247.59,3.68,247.59-6.09,294.81,46,275.27,46,275.27c-19.54,19.54-13,34.19-13,34.19C42.15,348.76,75.57,330.09,88.27,321.3Z"></path><path class="cls-11" d="M15.08,553.69s-42.33-16.28-22.8-29.31a66.71,66.71,0,0,1-4.47-13.2c-4.46-.14-18.21,1-10.91,21.71,0,0,4.32,12.25,20.89,13,0,0-16.57,24.49,19.45,31.7,0,0,5.21,1.31,13.73,2.63C17.47,575.22-5.26,564.46,15.08,553.69Z"></path><path class="cls-11" d="M-15.9,491.83s-7.93,6,3.46,17.87c-.8-5.69.47-10.36,8-8.11,0,0,37.45,35.82,44,6.51,0,0,15.88-21.06,3.06-48.79-7.14-15.43-6.26-32.36-1.28-46.31a58.19,58.19,0,0,0-3.87,5.35S21.56,440,36,471.66c0,0,2.88,58.35-24.49,36.74C11.47,508.39-8,476-15.9,491.83Z"></path><line class="cls-11" x1="231.95" y1="308.35" x2="270.7" y2="309.46"></line><polygon class="cls-11" points="233.02 310.94 271.44 306.59 242.44 331.24 233.02 310.94"></polygon><path class="cls-12" d="M132,434.83c-3.07-2.39-3.89-6.57-1.84-9.32l27.09-36.32c2.06-2.76,6.22-3.05,9.28-.66L227.4,436c3.07,2.4,3.89,6.57,1.84,9.33l-27.1,36.32c-4.39,6.09-7.11,5.92-10.18,3.53Z"></path><path class="cls-13" d="M129.53,435.5c-3.07-2.39-3.89-6.57-1.84-9.32l27.09-36.32c2.06-2.76,6.22-3.05,9.29-.66l60.88,47.42c3.07,2.39,3.89,6.57,1.84,9.33l-27.09,36.32c-2.06,2.76-6.21,3.05-9.29.66Z"></path><path class="cls-14" d="M229.42,431.58l-1.7,10.59s-23.24,32.43-32,41.77l-6-9.89"></path><path class="cls-12" d="M132.16,421.14c-3.07-2.39-3.89-6.57-1.84-9.33l27.09-36.32c2.06-2.76,6.22-3,9.29-.66l60.88,47.42c3.07,2.39,3.89,6.57,1.84,9.32l-27.1,36.32c-2.06,2.76-6.21,3.05-9.28.66Z"></path><path class="cls-13" d="M128.63,421.39c-3.07-2.39-3.9-6.57-1.84-9.32l27.09-36.32c2.06-2.76,6.21-3.05,9.28-.66l60.88,47.42c3.07,2.39,3.89,6.57,1.84,9.33L198.8,468.15c-2.06,2.76-6.21,3.05-9.29.66Z"></path><path class="cls-12" d="M123.18,431.83a3.2,3.2,0,0,1-1.15-3.69l2.47-10.73c.55-1.13,2-1.3,3.15-.39l70.63,50.84a3.2,3.2,0,0,1,1.15,3.69l-4.86,13.39c-.55,1.13-2,1.31-3.15.39Z"></path><path class="cls-2" d="M159.3,446.07s24.53-123.29,72.7-95c0,0,6.91,9.31-4.62,15.55,0,0-32.73,8.42-54.2,86.43"></path><path class="cls-3" d="M173.36,472s-10.51,6.07-11.89-4.74c0,0-18.68-1.44-15.5-16.21,0,0-.42-8.35,9.73-7.51,0,0,8.77-1,17.9,8.94,0,0,8.77,7.92,13.45,7.62,0,0,3.72,6.18-1.2,8.11,0,0-7.44,5.53-11.47-5.34Z"></path><path class="cls-3" d="M360,436.43c3-4.35,10.83-26.91,17.49-8,4.78-1.58,10.71-2.54,14.68,2.08,4.16,4.84,4.5,12.26-1.93,12.92,2.72,4.27,1.64,7.26-2.87,7.79,9,19.3-45.63,7.83-24.38-14.39"></path><path class="cls-15" d="M323.12,215.05s21.94-12.54,32.91,0v14.11s-13.32-14.11-34.48,0"></path><path class="cls-15" d="M316,133.55H185c-7.53,0-13.63,5.58-13.63,12.45V249.62c0,6.88,6.1,12.45,13.63,12.45H316c7.53,0,13.63-5.58,13.63-12.45V146C329.59,139.13,323.49,133.55,316,133.55Zm-3.19,105.06c0,5.42-4.8,9.81-10.73,9.81H198.91c-5.93,0-10.73-4.39-10.73-9.81V157c0-5.41,4.8-9.81,10.73-9.81H302c5.93,0,10.73,4.39,10.73,9.81Z"></path><path class="cls-15" d="M500.19,133.55h-131c-7.53,0-13.63,5.58-13.63,12.45V249.62c0,6.88,6.1,12.45,13.63,12.45h131c7.53,0,13.63-5.58,13.63-12.45V146C513.82,139.13,507.72,133.55,500.19,133.55ZM497,238.61c0,5.42-4.8,9.81-10.73,9.81H383.13c-5.93,0-10.73-4.39-10.73-9.81V157c0-5.41,4.8-9.81,10.73-9.81H486.27c5.93,0,10.73,4.39,10.73,9.81Z"></path><circle class="cls-18" cx="-7.88" cy="268.75" r="308.92"></circle></g><path class="cls-19" d="M359.07,306.44,314.84,450.55a26.44,26.44,0,1,0,50.56,15.52,28.72,28.72,0,0,0,.88-3.92L388.15,313a14.95,14.95,0,0,0-29.07-6.55Z"></path><path class="cls-20" d="M357,331.05,321.54,448.63a20.31,20.31,0,0,0,38.83,11.92,22.08,22.08,0,0,0,.68-3l18.31-121.45a11.48,11.48,0,0,0-22.33-5Z"></path><line class="cls-21" x1="367.42" y1="325.67" x2="334.95" y2="448.83"></line><path class="cls-22" d="M399,298.81,391.43,332a7.45,7.45,0,0,1-9,5.47L353.6,331a7.45,7.45,0,0,1-5.75-8.78L355.44,289a7.45,7.45,0,0,1,9-5.47l28.86,6.5A7.45,7.45,0,0,1,399,298.81Z"></path><path class="cls-23" d="M351.24,307.37l4.1-18a7.57,7.57,0,0,1,9-5.7l28.86,6.5a7.57,7.57,0,0,1,5.7,9l-4.1,17.94a77,77,0,0,1-43.58-9.8Z"></path><line class="cls-24" x1="360.73" y1="315.09" x2="358.48" y2="325.07"></line><path class="cls-25" d="M336.06,267.66q-2.19,1.18-4.33,2.52h0a6.36,6.36,0,0,0-1.68,9.23A76.68,76.68,0,0,0,425.88,301a6.36,6.36,0,0,0,2.44-9.06h0q-1.29-2-2.7-4A71.44,71.44,0,0,1,336.06,267.66Z"></path><path class="cls-26" d="M419.58,105.55A98.67,98.67,0,1,0,494.14,223.5,98.67,98.67,0,0,0,419.58,105.55ZM444,274.75a86.3,86.3,0,1,1,26.83-119.05A86.3,86.3,0,0,1,444,274.75Z"></path><path class="cls-23" d="M348.14,123.1a93.12,93.12,0,1,0,128.46,29A93.12,93.12,0,0,0,348.14,123.1Zm97,153.44a88.41,88.41,0,1,1,27.49-122A88.41,88.41,0,0,1,445.13,276.54Z"></path></svg>