<?xml version="1.0" encoding="UTF-8" standalone="no"?>
<svg
   xmlns:dc="http://purl.org/dc/elements/1.1/"
   xmlns:cc="http://creativecommons.org/ns#"
   xmlns:rdf="http://www.w3.org/1999/02/22-rdf-syntax-ns#"
   xmlns:svg="http://www.w3.org/2000/svg"
   xmlns="http://www.w3.org/2000/svg"
   xmlns:sodipodi="http://sodipodi.sourceforge.net/DTD/sodipodi-0.dtd"
   xmlns:inkscape="http://www.inkscape.org/namespaces/inkscape"
   viewBox="0 0 1063.1506 1063.1546"
   height="1063.1547"
   width="1063.1506"
   xml:space="preserve"
   id="svg2"
   version="1.1"
   sodipodi:docname="icono.turn_on.svg"
   inkscape:version="0.92.4 5da689c313, 2019-01-14"><sodipodi:namedview
     pagecolor="#ffffff"
     bordercolor="#666666"
     borderopacity="1"
     objecttolerance="10"
     gridtolerance="10"
     guidetolerance="10"
     inkscape:pageopacity="0"
     inkscape:pageshadow="2"
     inkscape:window-width="1920"
     inkscape:window-height="995"
     id="namedview112"
     showgrid="false"
     inkscape:zoom="0.22197975"
     inkscape:cx="-2103.8022"
     inkscape:cy="531.57998"
     inkscape:window-x="0"
     inkscape:window-y="0"
     inkscape:window-maximized="1"
     inkscape:current-layer="g10"
     fit-margin-top="0"
     fit-margin-left="0"
     fit-margin-right="0"
     fit-margin-bottom="0" /><metadata
     id="metadata8"><rdf:RDF><cc:Work
         rdf:about=""><dc:format>image/svg+xml</dc:format><dc:type
           rdf:resource="http://purl.org/dc/dcmitype/StillImage" /><dc:title /></cc:Work></rdf:RDF></metadata><defs
     id="defs6"><clipPath
       id="clipPath20"
       clipPathUnits="userSpaceOnUse"><path
         id="path18"
         d="M 0,7973.66 V 0 h 7973.63 v 7973.66 z"
         inkscape:connector-curvature="0" /></clipPath><clipPath
       id="clipPath134"
       clipPathUnits="userSpaceOnUse"><path
         id="path132"
         d="m 7538.78,4178.41 c 0,-1951.98 -1582.39,-3534.379 -3534.36,-3534.379 -1951.97,0 -3534.354,1582.399 -3534.354,3534.379 0,1951.97 1582.384,3534.36 3534.354,3534.36 1951.97,0 3534.36,-1582.39 3534.36,-3534.36 z"
         inkscape:connector-curvature="0" /></clipPath><linearGradient
       id="linearGradient140"
       spreadMethod="pad"
       gradientTransform="matrix(-4448.72,5493.55,5493.55,4448.72,6114.76,1572.43)"
       gradientUnits="userSpaceOnUse"
       y2="0"
       x2="1"
       y1="0"
       x1="0"><stop
         id="stop136"
         offset="0"
         style="stop-opacity:1;stop-color:#e6e7e8" /><stop
         id="stop138"
         offset="1"
         style="stop-opacity:1;stop-color:#ffffff" /></linearGradient><clipPath
       id="clipPath150"
       clipPathUnits="userSpaceOnUse"><path
         id="path148"
         d="m 1413.86,4178.31 c 0,1420.87 1151.84,2572.71 2572.7,2572.71 1420.87,0 2572.7,-1151.84 2572.7,-2572.71 0,-1420.87 -1151.83,-2572.71 -2572.7,-2572.71 -1420.86,0 -2572.7,1151.84 -2572.7,2572.71 z"
         inkscape:connector-curvature="0" /></clipPath><linearGradient
       id="linearGradient156"
       spreadMethod="pad"
       gradientTransform="matrix(948.046,-4698.9,-4698.9,-948.046,3637.68,5907.47)"
       gradientUnits="userSpaceOnUse"
       y2="0"
       x2="1"
       y1="0"
       x1="0"><stop
         id="stop152"
         offset="0"
         style="stop-opacity:1;stop-color:#e6e7e8" /><stop
         id="stop154"
         offset="1"
         style="stop-opacity:1;stop-color:#ffffff" /></linearGradient><clipPath
       id="clipPath166"
       clipPathUnits="userSpaceOnUse"><path
         id="path164"
         d="m 4502.97,5229.53 v -460.26 c 247.57,-150.58 413.78,-422.17 413.78,-732.49 0,-472.98 -384.74,-857.71 -857.58,-857.71 -472.97,0 -857.71,384.73 -857.71,857.71 0,310.39 166.34,581.98 413.9,732.54 v 460.28 c -484.04,-180.73 -830.3,-646.51 -830.3,-1192.82 0,-702.64 571.47,-1274.18 1274.11,-1274.18 702.63,0 1274.1,571.54 1274.1,1274.18 0,546.31 -346.19,1012.02 -830.3,1192.75 z"
         inkscape:connector-curvature="0" /></clipPath><linearGradient
       id="linearGradient172"
       spreadMethod="pad"
       gradientTransform="matrix(-277.67,2798.06,2798.06,277.67,4183.76,2781.16)"
       gradientUnits="userSpaceOnUse"
       y2="0"
       x2="1"
       y1="0"
       x1="0"><stop
         id="stop168"
         offset="0"
         style="stop-opacity:1;stop-color:#ffffff" /><stop
         id="stop170"
         offset="1"
         style="stop-opacity:1;stop-color:#f8f8f9" /></linearGradient><clipPath
       id="clipPath182"
       clipPathUnits="userSpaceOnUse"><path
         id="path180"
         d="m 3856.29,5587.55 v -294.37 -424.04 -377.11 h 405.76 v 377.11 424.04 294.37 z"
         inkscape:connector-curvature="0" /></clipPath><linearGradient
       id="linearGradient188"
       spreadMethod="pad"
       gradientTransform="matrix(-277.668,2798.03,2798.03,277.668,4282.33,2790.98)"
       gradientUnits="userSpaceOnUse"
       y2="0"
       x2="1"
       y1="0"
       x1="0"><stop
         id="stop184"
         offset="0"
         style="stop-opacity:1;stop-color:#ffffff" /><stop
         id="stop186"
         offset="1"
         style="stop-opacity:1;stop-color:#f8f8f9" /></linearGradient><clipPath
       id="clipPath198"
       clipPathUnits="userSpaceOnUse"><path
         id="path196"
         d="m 4460.25,5300.73 v -460.26 c 247.57,-150.58 413.78,-422.17 413.78,-732.49 0,-472.97 -384.74,-857.71 -857.58,-857.71 -472.97,0 -857.71,384.74 -857.71,857.71 0,310.39 166.34,581.98 413.9,732.54 v 460.28 c -484.04,-180.73 -830.3,-646.51 -830.3,-1192.82 0,-702.64 571.47,-1274.18 1274.11,-1274.18 702.63,0 1274.1,571.54 1274.1,1274.18 0,546.31 -346.19,1012.02 -830.3,1192.75 z"
         inkscape:connector-curvature="0" /></clipPath><linearGradient
       id="linearGradient204"
       spreadMethod="pad"
       gradientTransform="matrix(1281.61,-2107.54,-2107.54,-1281.61,3344.53,5212.37)"
       gradientUnits="userSpaceOnUse"
       y2="0"
       x2="1"
       y1="0"
       x1="0"><stop
         id="stop200"
         offset="0"
         style="stop-opacity:1;stop-color:#c0c2c4" /><stop
         id="stop202"
         offset="1"
         style="stop-opacity:1;stop-color:#e4e5e6" /></linearGradient><clipPath
       id="clipPath214"
       clipPathUnits="userSpaceOnUse"><path
         id="path212"
         d="m 3813.57,5658.75 v -294.37 -424.04 -377.11 h 405.76 v 377.11 424.04 294.37 z"
         inkscape:connector-curvature="0" /></clipPath><linearGradient
       id="linearGradient220"
       spreadMethod="pad"
       gradientTransform="matrix(1281.61,-2107.54,-2107.54,-1281.61,3790.04,5483.3)"
       gradientUnits="userSpaceOnUse"
       y2="0"
       x2="1"
       y1="0"
       x1="0"><stop
         id="stop216"
         offset="0"
         style="stop-opacity:1;stop-color:#c0c2c4" /><stop
         id="stop218"
         offset="1"
         style="stop-opacity:1;stop-color:#e4e5e6" /></linearGradient></defs><g
     transform="matrix(1.3333333,0,0,-1.3333333,0,1063.1546)"
     id="g10"><g
       transform="scale(0.1)"
       id="g12"><g
         id="g14"><g
           clip-path="url(#clipPath20)"
           id="g16"><path
             id="path22"
             style="fill:#ffffff;fill-opacity:1;fill-rule:nonzero;stroke:none"
             d="M 3986.79,0 C 1784.95,0 0,1785.01 0,3986.86 c 0,2201.84 1784.95,3986.8 3986.79,3986.8 2201.83,0 3986.84,-1784.96 3986.84,-3986.8 C 7973.63,1785.01 6188.62,0 3986.79,0 m -0.09,7965.86 C 1791.57,7965.86 12.0664,6186.34 12.0664,3991.22 12.0664,1796.08 1791.57,16.5195 3986.7,16.5195 c 2195.11,0 3974.68,1779.5605 3974.68,3974.7005 0,2195.12 -1779.57,3974.64 -3974.68,3974.64"
             inkscape:connector-curvature="0" /><path
             id="path24"
             style="fill:#ffffff;fill-opacity:1;fill-rule:nonzero;stroke:none"
             d="M 3986.7,16.5195 C 1791.57,16.5195 12.0664,1796.08 12.0664,3991.22 c 0,2195.12 1779.5036,3974.64 3974.6336,3974.64 2195.11,0 3974.68,-1779.52 3974.68,-3974.64 C 7961.38,1796.08 6181.81,16.5195 3986.7,16.5195 M 3986.6,7958.06 C 1798.19,7958.06 24.1289,6183.99 24.1289,3995.57 24.1289,1807.16 1798.19,33.0391 3986.6,33.0391 6175,33.0391 7949.12,1807.16 7949.12,3995.57 7949.12,6183.99 6175,7958.06 3986.6,7958.06"
             inkscape:connector-curvature="0" /><path
             id="path26"
             style="fill:#ffffff;fill-opacity:1;fill-rule:nonzero;stroke:none"
             d="M 3986.6,33.0391 C 1798.19,33.0391 24.1289,1807.16 24.1289,3995.57 24.1289,6183.99 1798.19,7958.06 3986.6,7958.06 6175,7958.06 7949.12,6183.99 7949.12,3995.57 7949.12,1807.16 6175,33.0391 3986.6,33.0391 M 3986.51,7950.26 C 1804.81,7950.26 36.1953,6181.63 36.1953,3999.93 36.1953,1818.23 1804.81,49.5508 3986.51,49.5508 c 2181.68,0 3950.36,1768.6792 3950.36,3950.3792 0,2181.7 -1768.68,3950.33 -3950.36,3950.33"
             inkscape:connector-curvature="0" /><path
             id="path28"
             style="fill:#ffffff;fill-opacity:1;fill-rule:nonzero;stroke:none"
             d="M 3986.51,49.5508 C 1804.81,49.5508 36.1953,1818.23 36.1953,3999.93 c 0,2181.7 1768.6147,3950.33 3950.3147,3950.33 2181.68,0 3950.36,-1768.63 3950.36,-3950.33 C 7936.87,1818.23 6168.19,49.5508 3986.51,49.5508 M 3986.42,7942.46 C 1811.43,7942.46 48.2578,6179.27 48.2578,4004.29 48.2578,1829.3 1811.43,66.0703 3986.42,66.0703 c 2174.97,0 3938.2,1763.2297 3938.2,3938.2197 0,2174.98 -1763.23,3938.17 -3938.2,3938.17"
             inkscape:connector-curvature="0" /><path
             id="path30"
             style="fill:#ffffff;fill-opacity:1;fill-rule:nonzero;stroke:none"
             d="M 3986.42,66.0703 C 1811.43,66.0703 48.2578,1829.3 48.2578,4004.29 c 0,2174.98 1763.1722,3938.17 3938.1622,3938.17 2174.97,0 3938.2,-1763.19 3938.2,-3938.17 C 7924.62,1829.3 6161.39,66.0703 3986.42,66.0703 m -0.1,7868.5897 C 1818.05,7934.66 60.3242,6176.92 60.3242,4008.65 60.3242,1840.38 1818.05,82.5898 3986.32,82.5898 c 2168.25,0 3926.04,1757.7902 3926.04,3926.0602 0,2168.27 -1757.79,3926.01 -3926.04,3926.01"
             inkscape:connector-curvature="0" /><path
             id="path32"
             style="fill:#fefefe;fill-opacity:1;fill-rule:nonzero;stroke:none"
             d="M 3986.32,82.5898 C 1818.05,82.5898 60.3242,1840.38 60.3242,4008.65 c 0,2168.27 1757.7258,3926.01 3925.9958,3926.01 2168.25,0 3926.04,-1757.74 3926.04,-3926.01 C 7912.36,1840.38 6154.57,82.5898 3986.32,82.5898 M 3986.23,7926.86 C 1824.67,7926.86 72.3867,6174.56 72.3867,4013.01 72.3867,1851.45 1824.67,99.1094 3986.23,99.1094 c 2161.54,0 3913.88,1752.3406 3913.88,3913.9006 0,2161.55 -1752.34,3913.85 -3913.88,3913.85"
             inkscape:connector-curvature="0" /><path
             id="path34"
             style="fill:#fefefe;fill-opacity:1;fill-rule:nonzero;stroke:none"
             d="M 3986.23,99.1094 C 1824.67,99.1094 72.3867,1851.45 72.3867,4013.01 c 0,2161.55 1752.2833,3913.85 3913.8433,3913.85 2161.54,0 3913.88,-1752.3 3913.88,-3913.85 C 7900.11,1851.45 6147.77,99.1094 3986.23,99.1094 m -0.1,7819.9406 C 1831.29,7919.05 84.4531,6172.2 84.4531,4017.36 84.4531,1862.52 1831.29,115.621 3986.13,115.621 c 2154.83,0 3901.73,1746.899 3901.73,3901.739 0,2154.84 -1746.9,3901.69 -3901.73,3901.69"
             inkscape:connector-curvature="0" /><path
             id="path36"
             style="fill:#fefefe;fill-opacity:1;fill-rule:nonzero;stroke:none"
             d="M 3986.13,115.621 C 1831.29,115.621 84.4531,1862.52 84.4531,4017.36 c 0,2154.84 1746.8369,3901.69 3901.6769,3901.69 2154.83,0 3901.73,-1746.85 3901.73,-3901.69 0,-2154.84 -1746.9,-3901.739 -3901.73,-3901.739 m -0.09,7795.629 C 1837.92,7911.25 96.5156,6169.85 96.5156,4021.72 96.5156,1873.6 1837.92,132.141 3986.04,132.141 c 2148.11,0 3889.56,1741.459 3889.56,3889.579 0,2148.13 -1741.45,3889.53 -3889.56,3889.53"
             inkscape:connector-curvature="0" /><path
             id="path38"
             style="fill:#fdfdfd;fill-opacity:1;fill-rule:nonzero;stroke:none"
             d="M 3986.04,132.141 C 1837.92,132.141 96.5156,1873.6 96.5156,4021.72 c 0,2148.13 1741.4044,3889.53 3889.5244,3889.53 2148.11,0 3889.56,-1741.4 3889.56,-3889.53 C 7875.6,1873.6 6134.15,132.141 3986.04,132.141 m -0.1,7771.309 c -2141.4,0 -3877.358,-1735.96 -3877.358,-3877.37 0,-2141.41 1735.958,-3877.42 3877.358,-3877.42 2141.4,0 3877.41,1736.01 3877.41,3877.42 0,2141.41 -1736.01,3877.37 -3877.41,3877.37"
             inkscape:connector-curvature="0" /><path
             id="path40"
             style="fill:#fcfcfc;fill-opacity:1;fill-rule:nonzero;stroke:none"
             d="m 3985.94,148.66 c -2141.4,0 -3877.358,1736.01 -3877.358,3877.42 0,2141.41 1735.958,3877.37 3877.358,3877.37 2141.4,0 3877.41,-1735.96 3877.41,-3877.37 0,-2141.41 -1736.01,-3877.42 -3877.41,-3877.42 m -0.09,7746.99 c -2134.69,0 -3865.205,-1730.52 -3865.205,-3865.21 0,-2134.7 1730.515,-3865.268 3865.205,-3865.268 2134.68,0 3865.25,1730.568 3865.25,3865.268 0,2134.69 -1730.57,3865.21 -3865.25,3865.21"
             inkscape:connector-curvature="0" /><path
             id="path42"
             style="fill:#fcfcfc;fill-opacity:1;fill-rule:nonzero;stroke:none"
             d="m 3985.85,165.172 c -2134.69,0 -3865.205,1730.568 -3865.205,3865.268 0,2134.69 1730.515,3865.21 3865.205,3865.21 2134.68,0 3865.25,-1730.52 3865.25,-3865.21 0,-2134.7 -1730.57,-3865.268 -3865.25,-3865.268 m -0.09,7722.678 C 1857.78,7887.85 132.711,6162.77 132.711,4034.8 132.711,1906.82 1857.78,181.691 3985.76,181.691 c 2127.96,0 3853.08,1725.129 3853.08,3853.109 0,2127.97 -1725.12,3853.05 -3853.08,3853.05"
             inkscape:connector-curvature="0" /><path
             id="path44"
             style="fill:#fbfbfb;fill-opacity:1;fill-rule:nonzero;stroke:none"
             d="m 3985.76,181.691 c -2127.98,0 -3853.049,1725.129 -3853.049,3853.109 0,2127.97 1725.069,3853.05 3853.049,3853.05 2127.96,0 3853.08,-1725.08 3853.08,-3853.05 0,-2127.98 -1725.12,-3853.109 -3853.08,-3853.109 m -0.1,7698.359 C 1864.4,7880.05 144.773,6160.42 144.773,4039.16 144.773,1917.89 1864.4,198.211 3985.66,198.211 c 2121.25,0 3840.93,1719.679 3840.93,3840.949 0,2121.26 -1719.68,3840.89 -3840.93,3840.89"
             inkscape:connector-curvature="0" /><path
             id="path46"
             style="fill:#fafafa;fill-opacity:1;fill-rule:nonzero;stroke:none"
             d="m 3985.66,198.211 c -2121.26,0 -3840.887,1719.679 -3840.887,3840.949 0,2121.26 1719.627,3840.89 3840.887,3840.89 2121.25,0 3840.93,-1719.63 3840.93,-3840.89 0,-2121.27 -1719.68,-3840.949 -3840.93,-3840.949 m -0.09,7674.039 c -2114.55,0 -3828.73,-1714.19 -3828.73,-3828.74 0,-2114.55 1714.18,-3828.78 3828.73,-3828.78 2114.53,0 3828.77,1714.23 3828.77,3828.78 0,2114.55 -1714.24,3828.74 -3828.77,3828.74"
             inkscape:connector-curvature="0" /><path
             id="path48"
             style="fill:#f9f9f9;fill-opacity:1;fill-rule:nonzero;stroke:none"
             d="m 3985.57,214.73 c -2114.55,0 -3828.73,1714.23 -3828.73,3828.78 0,2114.55 1714.18,3828.74 3828.73,3828.74 2114.53,0 3828.77,-1714.19 3828.77,-3828.74 0,-2114.55 -1714.24,-3828.78 -3828.77,-3828.78 m -0.1,7649.72 C 1877.64,7864.45 168.902,6155.7 168.902,4047.87 168.902,1940.04 1877.64,231.242 3985.47,231.242 c 2107.82,0 3816.61,1708.798 3816.61,3816.628 0,2107.83 -1708.79,3816.58 -3816.61,3816.58"
             inkscape:connector-curvature="0" /><path
             id="path50"
             style="fill:#f9f9f9;fill-opacity:1;fill-rule:nonzero;stroke:none"
             d="m 3985.47,231.242 c -2107.83,0 -3816.568,1708.798 -3816.568,3816.628 0,2107.83 1708.738,3816.58 3816.568,3816.58 2107.82,0 3816.61,-1708.75 3816.61,-3816.58 0,-2107.83 -1708.79,-3816.628 -3816.61,-3816.628 m -0.09,7625.408 c -2101.12,0 -3804.411,-1703.3 -3804.411,-3804.42 0,-2101.12 1703.291,-3804.468 3804.411,-3804.468 2101.1,0 3804.45,1703.348 3804.45,3804.468 0,2101.12 -1703.35,3804.42 -3804.45,3804.42"
             inkscape:connector-curvature="0" /><path
             id="path52"
             style="fill:#f8f8f8;fill-opacity:1;fill-rule:nonzero;stroke:none"
             d="m 3985.38,247.762 c -2101.12,0 -3804.411,1703.348 -3804.411,3804.468 0,2101.12 1703.291,3804.42 3804.411,3804.42 2101.1,0 3804.45,-1703.3 3804.45,-3804.42 0,-2101.12 -1703.35,-3804.468 -3804.45,-3804.468 m -0.1,7601.088 c -2094.4,0 -3792.249,-1697.86 -3792.249,-3792.26 0,-2094.4 1697.849,-3792.309 3792.249,-3792.309 2094.39,0 3792.3,1697.909 3792.3,3792.309 0,2094.4 -1697.91,3792.26 -3792.3,3792.26"
             inkscape:connector-curvature="0" /><path
             id="path54"
             style="fill:#f6f6f6;fill-opacity:1;fill-rule:nonzero;stroke:none"
             d="m 3985.28,264.281 c -2094.4,0 -3792.249,1697.909 -3792.249,3792.309 0,2094.4 1697.849,3792.26 3792.249,3792.26 2094.39,0 3792.3,-1697.86 3792.3,-3792.26 0,-2094.4 -1697.91,-3792.309 -3792.3,-3792.309 m -0.09,7576.769 C 1897.5,7841.05 205.098,6148.63 205.098,4060.95 205.098,1973.26 1897.5,280.801 3985.19,280.801 c 2087.67,0 3780.13,1692.459 3780.13,3780.149 0,2087.68 -1692.46,3780.1 -3780.13,3780.1"
             inkscape:connector-curvature="0" /><path
             id="path56"
             style="fill:#f5f5f5;fill-opacity:1;fill-rule:nonzero;stroke:none"
             d="m 3985.19,280.801 c -2087.69,0 -3780.092,1692.459 -3780.092,3780.149 0,2087.68 1692.402,3780.1 3780.092,3780.1 2087.67,0 3780.13,-1692.42 3780.13,-3780.1 0,-2087.69 -1692.46,-3780.149 -3780.13,-3780.149 m -0.09,7552.449 c -2080.98,0 -3767.94,-1686.97 -3767.94,-3767.94 0,-2080.98 1686.96,-3768.001 3767.94,-3768.001 2080.95,0 3767.97,1687.021 3767.97,3768.001 0,2080.97 -1687.02,3767.94 -3767.97,3767.94"
             inkscape:connector-curvature="0" /><path
             id="path58"
             style="fill:#f4f4f4;fill-opacity:1;fill-rule:nonzero;stroke:none"
             d="m 3985.1,297.309 c -2080.98,0 -3767.94,1687.021 -3767.94,3768.001 0,2080.97 1686.96,3767.94 3767.94,3767.94 2080.95,0 3767.97,-1686.97 3767.97,-3767.94 C 7753.07,1984.33 6066.05,297.309 3985.1,297.309 M 3985,7825.45 C 1910.75,7825.45 229.227,6143.92 229.227,4069.66 229.227,1995.4 1910.75,313.832 3985,313.832 c 2074.24,0 3755.82,1681.568 3755.82,3755.828 0,2074.26 -1681.58,3755.79 -3755.82,3755.79"
             inkscape:connector-curvature="0" /><path
             id="path60"
             style="fill:#f3f3f3;fill-opacity:1;fill-rule:nonzero;stroke:none"
             d="m 3985,313.832 c -2074.25,0 -3755.773,1681.568 -3755.773,3755.828 0,2074.26 1681.523,3755.79 3755.773,3755.79 2074.24,0 3755.82,-1681.53 3755.82,-3755.79 C 7740.82,1995.4 6059.24,313.832 3985,313.832 m -0.09,7503.808 c -2067.54,0 -3743.617,-1676.08 -3743.617,-3743.62 0,-2067.54 1676.077,-3743.668 3743.617,-3743.668 2067.52,0 3743.65,1676.128 3743.65,3743.668 0,2067.54 -1676.13,3743.62 -3743.65,3743.62"
             inkscape:connector-curvature="0" /><path
             id="path62"
             style="fill:#f1f1f1;fill-opacity:1;fill-rule:nonzero;stroke:none"
             d="m 3984.91,330.352 c -2067.54,0 -3743.617,1676.128 -3743.617,3743.668 0,2067.54 1676.077,3743.62 3743.617,3743.62 2067.52,0 3743.65,-1676.08 3743.65,-3743.62 0,-2067.54 -1676.13,-3743.668 -3743.65,-3743.668 m -0.1,7479.488 C 1923.99,7809.84 253.355,6139.2 253.355,4078.38 253.355,2017.55 1923.99,346.871 3984.81,346.871 c 2060.81,0 3731.5,1670.679 3731.5,3731.509 0,2060.82 -1670.69,3731.46 -3731.5,3731.46"
             inkscape:connector-curvature="0" /><path
             id="path64"
             style="fill:#f0f0f0;fill-opacity:1;fill-rule:nonzero;stroke:none"
             d="m 3984.81,346.871 c -2060.82,0 -3731.455,1670.679 -3731.455,3731.509 0,2060.82 1670.635,3731.46 3731.455,3731.46 2060.81,0 3731.5,-1670.64 3731.5,-3731.46 0,-2060.83 -1670.69,-3731.509 -3731.5,-3731.509 m -0.09,7455.169 c -2054.11,0 -3719.298,-1665.19 -3719.298,-3719.3 0,-2054.12 1665.188,-3719.361 3719.298,-3719.361 2054.09,0 3719.34,1665.241 3719.34,3719.361 0,2054.11 -1665.25,3719.3 -3719.34,3719.3"
             inkscape:connector-curvature="0" /><path
             id="path66"
             style="fill:#efefef;fill-opacity:1;fill-rule:nonzero;stroke:none"
             d="m 3984.72,363.379 c -2054.11,0 -3719.298,1665.241 -3719.298,3719.361 0,2054.11 1665.188,3719.3 3719.298,3719.3 2054.09,0 3719.34,-1665.19 3719.34,-3719.3 0,-2054.12 -1665.25,-3719.361 -3719.34,-3719.361 m -0.1,7430.861 C 1937.23,7794.24 277.484,6134.49 277.484,4087.09 277.484,2039.7 1937.23,379.902 3984.62,379.902 c 2047.39,0 3707.18,1659.798 3707.18,3707.188 0,2047.4 -1659.79,3707.15 -3707.18,3707.15"
             inkscape:connector-curvature="0" /><path
             id="path68"
             style="fill:#ededed;fill-opacity:1;fill-rule:nonzero;stroke:none"
             d="m 3984.62,379.902 c -2047.39,0 -3707.136,1659.798 -3707.136,3707.188 0,2047.4 1659.746,3707.15 3707.136,3707.15 2047.39,0 3707.18,-1659.75 3707.18,-3707.15 C 7691.8,2039.7 6032.01,379.902 3984.62,379.902 m -0.09,7406.538 c -2040.68,0 -3694.979,-1654.31 -3694.979,-3694.99 0,-2040.68 1654.299,-3695.028 3694.979,-3695.028 2040.66,0 3695.02,1654.348 3695.02,3695.028 0,2040.68 -1654.36,3694.99 -3695.02,3694.99"
             inkscape:connector-curvature="0" /><path
             id="path70"
             style="fill:#ebebeb;fill-opacity:1;fill-rule:nonzero;stroke:none"
             d="m 3984.53,396.422 c -2040.68,0 -3694.979,1654.348 -3694.979,3695.028 0,2040.68 1654.299,3694.99 3694.979,3694.99 2040.66,0 3695.02,-1654.31 3695.02,-3694.99 0,-2040.68 -1654.36,-3695.028 -3695.02,-3695.028 m -0.09,7382.218 c -2033.97,0 -3682.827,-1648.86 -3682.827,-3682.83 0,-2033.97 1648.857,-3682.88 3682.827,-3682.88 2033.95,0 3682.86,1648.91 3682.86,3682.88 0,2033.97 -1648.91,3682.83 -3682.86,3682.83"
             inkscape:connector-curvature="0" /><path
             id="path72"
             style="fill:#eaeaea;fill-opacity:1;fill-rule:nonzero;stroke:none"
             d="m 3984.44,412.93 c -2033.97,0 -3682.827,1648.91 -3682.827,3682.88 0,2033.97 1648.857,3682.83 3682.827,3682.83 2033.95,0 3682.86,-1648.86 3682.86,-3682.83 0,-2033.97 -1648.91,-3682.88 -3682.86,-3682.88 m -0.1,7357.91 c -2027.25,0 -3670.66,-1643.42 -3670.66,-3670.67 0,-2027.25 1643.41,-3670.721 3670.66,-3670.721 2027.24,0 3670.7,1643.471 3670.7,3670.721 0,2027.25 -1643.46,3670.67 -3670.7,3670.67"
             inkscape:connector-curvature="0" /><path
             id="path74"
             style="fill:#e8e8e8;fill-opacity:1;fill-rule:nonzero;stroke:none"
             d="m 3984.34,429.449 c -2027.25,0 -3670.66,1643.471 -3670.66,3670.721 0,2027.25 1643.41,3670.67 3670.66,3670.67 2027.24,0 3670.7,-1643.42 3670.7,-3670.67 0,-2027.25 -1643.46,-3670.721 -3670.7,-3670.721 m -0.09,7333.591 c -2020.54,0 -3658.508,-1637.98 -3658.508,-3658.51 0,-2020.54 1637.968,-3658.561 3658.508,-3658.561 2020.52,0 3658.54,1638.021 3658.54,3658.561 0,2020.53 -1638.02,3658.51 -3658.54,3658.51"
             inkscape:connector-curvature="0" /><path
             id="path76"
             style="fill:#e6e6e6;fill-opacity:1;fill-rule:nonzero;stroke:none"
             d="m 3984.25,445.969 c -2020.54,0 -3658.508,1638.021 -3658.508,3658.561 0,2020.53 1637.968,3658.51 3658.508,3658.51 2020.52,0 3658.54,-1637.98 3658.54,-3658.51 0,-2020.54 -1638.02,-3658.561 -3658.54,-3658.561 m -0.1,7309.271 C 1970.33,7755.24 337.809,6122.7 337.809,4108.89 337.809,2095.07 1970.33,462.492 3984.15,462.492 c 2013.81,0 3646.39,1632.578 3646.39,3646.398 0,2013.81 -1632.58,3646.35 -3646.39,3646.35"
             inkscape:connector-curvature="0" /><path
             id="path78"
             style="fill:#e4e4e4;fill-opacity:1;fill-rule:nonzero;stroke:none"
             d="m 3984.15,462.492 c -2013.82,0 -3646.341,1632.578 -3646.341,3646.398 0,2013.81 1632.521,3646.35 3646.341,3646.35 2013.81,0 3646.39,-1632.54 3646.39,-3646.35 0,-2013.82 -1632.58,-3646.398 -3646.39,-3646.398 m -0.09,7284.948 C 1976.95,7747.44 349.871,6120.35 349.871,4113.24 349.871,2106.14 1976.95,479 3984.06,479 c 2007.09,0 3634.22,1627.14 3634.22,3634.24 0,2007.11 -1627.13,3634.2 -3634.22,3634.2"
             inkscape:connector-curvature="0" /><path
             id="path80"
             style="fill:#e2e2e2;fill-opacity:1;fill-rule:nonzero;stroke:none"
             d="M 3984.06,479 C 1976.95,479 349.871,2106.14 349.871,4113.24 c 0,2007.11 1627.079,3634.2 3634.189,3634.2 2007.09,0 3634.22,-1627.09 3634.22,-3634.2 C 7618.28,2106.14 5991.15,479 3984.06,479 m -0.1,7260.64 C 1983.57,7739.64 361.938,6117.99 361.938,4117.6 361.938,2117.21 1983.57,495.52 3983.96,495.52 c 2000.38,0 3622.07,1621.69 3622.07,3622.08 0,2000.39 -1621.69,3622.04 -3622.07,3622.04"
             inkscape:connector-curvature="0" /><path
             id="path82"
             style="fill:#e1e1e1;fill-opacity:1;fill-rule:nonzero;stroke:none"
             d="m 3983.96,495.52 c -2000.39,0 -3622.022,1621.69 -3622.022,3622.08 0,2000.39 1621.632,3622.04 3622.022,3622.04 2000.38,0 3622.07,-1621.65 3622.07,-3622.04 0,-2000.39 -1621.69,-3622.08 -3622.07,-3622.08 m -0.09,7236.32 C 1990.2,7731.84 374.004,6115.63 374.004,4121.96 374.004,2128.28 1990.2,512.039 3983.87,512.039 c 1993.66,0 3609.9,1616.241 3609.9,3609.921 0,1993.67 -1616.24,3609.88 -3609.9,3609.88"
             inkscape:connector-curvature="0" /><path
             id="path84"
             style="fill:#dedede;fill-opacity:1;fill-rule:nonzero;stroke:none"
             d="m 3983.87,512.039 c -1993.67,0 -3609.866,1616.241 -3609.866,3609.921 0,1993.67 1616.196,3609.88 3609.866,3609.88 1993.66,0 3609.9,-1616.21 3609.9,-3609.88 0,-1993.68 -1616.24,-3609.921 -3609.9,-3609.921 m -0.1,7212.001 c -1986.95,0 -3597.704,-1610.76 -3597.704,-3597.72 0,-1986.96 1610.754,-3597.769 3597.704,-3597.769 1986.95,0 3597.75,1610.809 3597.75,3597.769 0,1986.96 -1610.8,3597.72 -3597.75,3597.72"
             inkscape:connector-curvature="0" /><path
             id="path86"
             style="fill:#dcdcdc;fill-opacity:1;fill-rule:nonzero;stroke:none"
             d="m 3983.77,528.551 c -1986.95,0 -3597.704,1610.809 -3597.704,3597.769 0,1986.96 1610.754,3597.72 3597.704,3597.72 1986.95,0 3597.75,-1610.76 3597.75,-3597.72 0,-1986.96 -1610.8,-3597.769 -3597.75,-3597.769 m -0.09,7187.679 c -1980.24,0 -3585.547,-1605.31 -3585.547,-3585.55 0,-1980.25 1605.307,-3585.61 3585.547,-3585.61 1980.23,0 3585.59,1605.36 3585.59,3585.61 0,1980.24 -1605.36,3585.55 -3585.59,3585.55"
             inkscape:connector-curvature="0" /><path
             id="path88"
             style="fill:#dadada;fill-opacity:1;fill-rule:nonzero;stroke:none"
             d="m 3983.68,545.07 c -1980.24,0 -3585.547,1605.36 -3585.547,3585.61 0,1980.24 1605.307,3585.55 3585.547,3585.55 1980.23,0 3585.59,-1605.31 3585.59,-3585.55 0,-1980.25 -1605.36,-3585.61 -3585.59,-3585.61 m -0.09,7163.36 c -1973.53,0 -3573.395,-1599.87 -3573.395,-3573.4 0,-1973.53 1599.865,-3573.44 3573.395,-3573.44 1973.51,0 3573.42,1599.91 3573.42,3573.44 0,1973.53 -1599.91,3573.4 -3573.42,3573.4"
             inkscape:connector-curvature="0" /><path
             id="path90"
             style="fill:#d8d8d8;fill-opacity:1;fill-rule:nonzero;stroke:none"
             d="m 3983.59,561.59 c -1973.53,0 -3573.395,1599.91 -3573.395,3573.44 0,1973.53 1599.865,3573.4 3573.395,3573.4 1973.51,0 3573.42,-1599.87 3573.42,-3573.4 C 7557.01,2161.5 5957.1,561.59 3983.59,561.59 m -0.1,7139.04 c -1966.81,0 -3561.228,-1594.42 -3561.228,-3561.24 0,-1966.81 1594.418,-3561.281 3561.228,-3561.281 1966.8,0 3561.27,1594.471 3561.27,3561.281 0,1966.82 -1594.47,3561.24 -3561.27,3561.24"
             inkscape:connector-curvature="0" /><path
             id="path92"
             style="fill:#d5d5d5;fill-opacity:1;fill-rule:nonzero;stroke:none"
             d="m 3983.49,578.109 c -1966.81,0 -3561.228,1594.471 -3561.228,3561.281 0,1966.82 1594.418,3561.24 3561.228,3561.24 1966.8,0 3561.27,-1594.42 3561.27,-3561.24 0,-1966.81 -1594.47,-3561.281 -3561.27,-3561.281 M 3983.4,7692.83 C 2023.3,7692.83 434.324,6103.85 434.324,4143.75 434.324,2183.65 2023.3,594.621 3983.4,594.621 c 1960.08,0 3549.11,1589.029 3549.11,3549.129 0,1960.1 -1589.03,3549.08 -3549.11,3549.08"
             inkscape:connector-curvature="0" /><path
             id="path94"
             style="fill:#d3d3d3;fill-opacity:1;fill-rule:nonzero;stroke:none"
             d="m 3983.4,594.621 c -1960.1,0 -3549.076,1589.029 -3549.076,3549.129 0,1960.1 1588.976,3549.08 3549.076,3549.08 1960.08,0 3549.11,-1588.98 3549.11,-3549.08 0,-1960.1 -1589.03,-3549.129 -3549.11,-3549.129 m -0.1,7090.409 C 2029.92,7685.03 446.391,6101.49 446.391,4148.11 446.391,2194.72 2029.92,611.141 3983.3,611.141 c 1953.37,0 3536.96,1583.579 3536.96,3536.969 0,1953.38 -1583.59,3536.92 -3536.96,3536.92"
             inkscape:connector-curvature="0" /><path
             id="path96"
             style="fill:#d0d0d0;fill-opacity:1;fill-rule:nonzero;stroke:none"
             d="m 3983.3,611.141 c -1953.38,0 -3536.909,1583.579 -3536.909,3536.969 0,1953.38 1583.529,3536.92 3536.909,3536.92 1953.37,0 3536.96,-1583.54 3536.96,-3536.92 0,-1953.39 -1583.59,-3536.969 -3536.96,-3536.969 m -0.09,7066.089 C 2036.54,7677.23 458.453,6099.13 458.453,4152.47 458.453,2205.8 2036.54,627.66 3983.21,627.66 5929.86,627.66 7508,2205.8 7508,4152.47 7508,6099.13 5929.86,7677.23 3983.21,7677.23"
             inkscape:connector-curvature="0" /><path
             id="path98"
             style="fill:#cecece;fill-opacity:1;fill-rule:nonzero;stroke:none"
             d="m 3983.21,627.66 c -1946.67,0 -3524.757,1578.14 -3524.757,3524.81 0,1946.66 1578.087,3524.76 3524.757,3524.76 C 5929.86,7677.23 7508,6099.13 7508,4152.47 7508,2205.8 5929.86,627.66 3983.21,627.66 m -0.1,7041.77 c -1939.95,0 -3512.59,-1572.65 -3512.59,-3512.6 0,-1939.96 1572.64,-3512.65 3512.59,-3512.65 1939.94,0 3512.64,1572.69 3512.64,3512.65 0,1939.95 -1572.7,3512.6 -3512.64,3512.6"
             inkscape:connector-curvature="0" /><path
             id="path100"
             style="fill:#cbcbcb;fill-opacity:1;fill-rule:nonzero;stroke:none"
             d="m 3983.11,644.18 c -1939.95,0 -3512.59,1572.69 -3512.59,3512.65 0,1939.95 1572.64,3512.6 3512.59,3512.6 1939.94,0 3512.64,-1572.65 3512.64,-3512.6 0,-1939.96 -1572.7,-3512.65 -3512.64,-3512.65 m -0.09,7017.45 c -1933.24,0 -3500.434,-1567.21 -3500.434,-3500.45 0,-1933.24 1567.194,-3500.489 3500.434,-3500.489 1933.22,0 3500.47,1567.249 3500.47,3500.489 0,1933.24 -1567.25,3500.45 -3500.47,3500.45"
             inkscape:connector-curvature="0" /><path
             id="path102"
             style="fill:#c8c8c8;fill-opacity:1;fill-rule:nonzero;stroke:none"
             d="m 3983.02,660.691 c -1933.24,0 -3500.434,1567.249 -3500.434,3500.489 0,1933.24 1567.194,3500.45 3500.434,3500.45 1933.22,0 3500.47,-1567.21 3500.47,-3500.45 0,-1933.24 -1567.25,-3500.489 -3500.47,-3500.489 m -0.09,6993.129 C 2056.4,7653.82 494.648,6092.06 494.648,4165.54 494.648,2239.02 2056.4,677.211 3982.93,677.211 c 1926.5,0 3488.31,1561.809 3488.31,3488.329 0,1926.52 -1561.81,3488.28 -3488.31,3488.28"
             inkscape:connector-curvature="0" /><path
             id="path104"
             style="fill:#c5c5c5;fill-opacity:1;fill-rule:nonzero;stroke:none"
             d="m 3982.93,677.211 c -1926.53,0 -3488.282,1561.809 -3488.282,3488.329 0,1926.52 1561.752,3488.28 3488.282,3488.28 1926.5,0 3488.31,-1561.76 3488.31,-3488.28 0,-1926.52 -1561.81,-3488.329 -3488.31,-3488.329 m -0.1,6968.819 C 2063.02,7646.03 506.715,6089.71 506.715,4169.9 506.715,2250.09 2063.02,693.73 3982.83,693.73 c 1919.79,0 3476.16,1556.36 3476.16,3476.17 0,1919.81 -1556.37,3476.13 -3476.16,3476.13"
             inkscape:connector-curvature="0" /><path
             id="path106"
             style="fill:#c3c3c3;fill-opacity:1;fill-rule:nonzero;stroke:none"
             d="m 3982.83,693.73 c -1919.81,0 -3476.115,1556.36 -3476.115,3476.17 0,1919.81 1556.305,3476.13 3476.115,3476.13 1919.79,0 3476.16,-1556.32 3476.16,-3476.13 0,-1919.81 -1556.37,-3476.17 -3476.16,-3476.17 m -0.09,6944.49 c -1913.09,0 -3463.963,-1550.87 -3463.963,-3463.96 0,-1913.1 1550.873,-3464.018 3463.963,-3464.018 1913.08,0 3463.99,1550.918 3463.99,3464.018 0,1913.09 -1550.91,3463.96 -3463.99,3463.96"
             inkscape:connector-curvature="0" /><path
             id="path108"
             style="fill:#c0c0c0;fill-opacity:1;fill-rule:nonzero;stroke:none"
             d="m 3982.74,710.242 c -1913.09,0 -3463.963,1550.918 -3463.963,3464.018 0,1913.09 1550.873,3463.96 3463.963,3463.96 1913.08,0 3463.99,-1550.87 3463.99,-3463.96 0,-1913.1 -1550.91,-3464.018 -3463.99,-3464.018 m -0.1,6920.178 c -1906.37,0 -3451.796,-1545.43 -3451.796,-3451.8 0,-1906.38 1545.426,-3451.858 3451.796,-3451.858 1906.36,0 3451.84,1545.478 3451.84,3451.858 0,1906.37 -1545.48,3451.8 -3451.84,3451.8"
             inkscape:connector-curvature="0" /><path
             id="path110"
             style="fill:#bdbdbd;fill-opacity:1;fill-rule:nonzero;stroke:none"
             d="m 3982.64,726.762 c -1906.37,0 -3451.796,1545.478 -3451.796,3451.858 0,1906.37 1545.426,3451.8 3451.796,3451.8 1906.36,0 3451.84,-1545.43 3451.84,-3451.8 C 7434.48,2272.24 5889,726.762 3982.64,726.762 m -0.09,6895.858 c -1899.66,0 -3439.644,-1539.98 -3439.644,-3439.65 0,-1899.66 1539.984,-3439.689 3439.644,-3439.689 1899.65,0 3439.68,1540.029 3439.68,3439.689 0,1899.67 -1540.03,3439.65 -3439.68,3439.65"
             inkscape:connector-curvature="0" /><path
             id="path112"
             style="fill:#b9b9b9;fill-opacity:1;fill-rule:nonzero;stroke:none"
             d="m 3982.55,743.281 c -1899.66,0 -3439.644,1540.029 -3439.644,3439.689 0,1899.67 1539.984,3439.65 3439.644,3439.65 1899.65,0 3439.68,-1539.98 3439.68,-3439.65 0,-1899.66 -1540.03,-3439.689 -3439.68,-3439.689 m -0.1,6871.539 c -1892.94,0 -3427.477,-1534.54 -3427.477,-3427.49 0,-1892.95 1534.537,-3427.529 3427.477,-3427.529 1892.94,0 3427.52,1534.579 3427.52,3427.529 0,1892.95 -1534.58,3427.49 -3427.52,3427.49"
             inkscape:connector-curvature="0" /><path
             id="path114"
             style="fill:#b7b7b7;fill-opacity:1;fill-rule:nonzero;stroke:none"
             d="m 3982.45,759.801 c -1892.94,0 -3427.477,1534.579 -3427.477,3427.529 0,1892.95 1534.537,3427.49 3427.477,3427.49 1892.94,0 3427.52,-1534.54 3427.52,-3427.49 0,-1892.95 -1534.58,-3427.529 -3427.52,-3427.529 m -0.09,6847.219 c -1886.23,0 -3415.325,-1529.1 -3415.325,-3415.33 0,-1886.23 1529.095,-3415.377 3415.325,-3415.377 1886.22,0 3415.36,1529.147 3415.36,3415.377 0,1886.23 -1529.14,3415.33 -3415.36,3415.33"
             inkscape:connector-curvature="0" /><path
             id="path116"
             style="fill:#b3b3b3;fill-opacity:1;fill-rule:nonzero;stroke:none"
             d="m 3982.36,776.313 c -1886.23,0 -3415.325,1529.147 -3415.325,3415.377 0,1886.23 1529.095,3415.33 3415.325,3415.33 1886.22,0 3415.36,-1529.1 3415.36,-3415.33 0,-1886.23 -1529.14,-3415.377 -3415.36,-3415.377 m -0.09,6822.907 c -1879.52,0 -3403.168,-1523.66 -3403.168,-3403.17 0,-1879.52 1523.648,-3403.218 3403.168,-3403.218 1879.5,0 3403.2,1523.698 3403.2,3403.218 0,1879.51 -1523.7,3403.17 -3403.2,3403.17"
             inkscape:connector-curvature="0" /><path
             id="path118"
             style="fill:#b0b0b0;fill-opacity:1;fill-rule:nonzero;stroke:none"
             d="m 3982.27,792.832 c -1879.52,0 -3403.168,1523.698 -3403.168,3403.218 0,1879.51 1523.648,3403.17 3403.168,3403.17 1879.5,0 3403.2,-1523.66 3403.2,-3403.17 0,-1879.52 -1523.7,-3403.218 -3403.2,-3403.218 m -0.1,6798.588 c -1872.8,0 -3391.006,-1518.21 -3391.006,-3391.01 0,-1872.81 1518.206,-3391.058 3391.006,-3391.058 1872.79,0 3391.04,1518.248 3391.04,3391.058 0,1872.8 -1518.25,3391.01 -3391.04,3391.01"
             inkscape:connector-curvature="0" /><path
             id="path120"
             style="fill:#acacac;fill-opacity:1;fill-rule:nonzero;stroke:none"
             d="m 3982.17,809.352 c -1872.8,0 -3391.006,1518.248 -3391.006,3391.058 0,1872.8 1518.206,3391.01 3391.006,3391.01 1872.79,0 3391.04,-1518.21 3391.04,-3391.01 0,-1872.81 -1518.25,-3391.058 -3391.04,-3391.058 m -0.09,6774.268 c -1866.09,0 -3378.85,-1512.77 -3378.85,-3378.86 0,-1866.08 1512.76,-3378.901 3378.85,-3378.901 1866.07,0 3378.88,1512.821 3378.88,3378.901 0,1866.09 -1512.81,3378.86 -3378.88,3378.86"
             inkscape:connector-curvature="0" /><path
             id="path122"
             style="fill:#aaaaaa;fill-opacity:1;fill-rule:nonzero;stroke:none"
             d="m 3982.08,825.859 c -1866.09,0 -3378.85,1512.821 -3378.85,3378.901 0,1866.09 1512.76,3378.86 3378.85,3378.86 1866.07,0 3378.88,-1512.77 3378.88,-3378.86 0,-1866.08 -1512.81,-3378.901 -3378.88,-3378.901 m -0.1,6749.961 c -1859.37,0 -3366.683,-1507.33 -3366.683,-3366.7 0,-1859.37 1507.313,-3366.741 3366.683,-3366.741 1859.36,0 3366.73,1507.371 3366.73,3366.741 0,1859.37 -1507.37,3366.7 -3366.73,3366.7"
             inkscape:connector-curvature="0" /><path
             id="path124"
             style="fill:#a6a6a6;fill-opacity:1;fill-rule:nonzero;stroke:none"
             d="m 3981.98,842.379 c -1859.37,0 -3366.683,1507.371 -3366.683,3366.741 0,1859.37 1507.313,3366.7 3366.683,3366.7 1859.36,0 3366.73,-1507.33 3366.73,-3366.7 0,-1859.37 -1507.37,-3366.741 -3366.73,-3366.741"
             inkscape:connector-curvature="0" /><path
             id="path126"
             style="fill:#ffffff;fill-opacity:1;fill-rule:nonzero;stroke:none"
             d="M 7492.21,4225 C 7492.21,2273.03 5909.79,690.602 3957.83,690.602 2005.86,690.602 423.48,2273.03 423.48,4225 c 0,1951.97 1582.38,3534.36 3534.35,3534.36 1951.96,0 3534.38,-1582.39 3534.38,-3534.36"
             inkscape:connector-curvature="0" /></g></g><g
         id="g128"><g
           clip-path="url(#clipPath134)"
           id="g130"><path
             id="path142"
             style="fill:url(#linearGradient140);fill-opacity:1;fill-rule:nonzero;stroke:none"
             d="m 7538.78,4178.41 c 0,-1951.98 -1582.39,-3534.379 -3534.36,-3534.379 -1951.97,0 -3534.354,1582.399 -3534.354,3534.379 0,1951.97 1582.384,3534.36 3534.354,3534.36 1951.97,0 3534.36,-1582.39 3534.36,-3534.36"
             inkscape:connector-curvature="0" /></g></g><g
         id="g144"><g
           clip-path="url(#clipPath150)"
           id="g146" /></g><g
         id="g160"><g
           clip-path="url(#clipPath166)"
           id="g162" /></g><g
         id="g176"><g
           clip-path="url(#clipPath182)"
           id="g178" /></g><g
         id="g192"><g
           clip-path="url(#clipPath198)"
           id="g194" /></g><g
         id="g208"><g
           clip-path="url(#clipPath214)"
           id="g210" /></g></g><path
       inkscape:connector-curvature="0"
       id="path206-7"
       style="fill:#008000;fill-opacity:1;fill-rule:nonzero;stroke:none;stroke-width:0.19760908"
       d="m 484.86211,643.81624 v -89.52018 c 49.70436,-29.28767 83.07414,-82.11168 83.07414,-142.46868 0,-91.99229 -77.24379,-166.82387 -172.17533,-166.82387 -94.95765,0 -172.20149,74.83158 -172.20149,166.82387 0,60.3706 33.39591,113.19462 83.09826,142.47841 v 89.52406 C 209.47752,608.67801 139.95934,518.08421 139.95934,411.82738 c 0,-136.66289 114.73333,-247.82693 255.80158,-247.82693 141.06622,0 255.79959,111.16404 255.79959,247.82693 0,106.25683 -69.50417,196.83702 -166.6984,231.98886" /><path
       inkscape:connector-curvature="0"
       id="path222-5"
       style="fill:#008000;fill-opacity:1;fill-rule:nonzero;stroke:none;stroke-width:0.17858331"
       d="M 361.50361,696.31825 V 505.67777 h 74.36283 v 190.64048 h -74.36283" /></g></svg>