<?xml version="1.0" encoding="UTF-8" standalone="no"?>
<!-- Generator: Adobe Illustrator 22.0.0, SVG Export Plug-In . SVG Version: 6.00 Build 0)  -->

<svg
   xmlns:dc="http://purl.org/dc/elements/1.1/"
   xmlns:cc="http://creativecommons.org/ns#"
   xmlns:rdf="http://www.w3.org/1999/02/22-rdf-syntax-ns#"
   xmlns:svg="http://www.w3.org/2000/svg"
   xmlns="http://www.w3.org/2000/svg"
   xmlns:sodipodi="http://sodipodi.sourceforge.net/DTD/sodipodi-0.dtd"
   xmlns:inkscape="http://www.inkscape.org/namespaces/inkscape"
   version="1.1"
   id="Layer_1"
   x="0px"
   y="0px"
   viewBox="0 0 64.89872 67.776469"
   xml:space="preserve"
   width="324.49359"
   height="338.88235"
   sodipodi:docname="icono.installation.svg"
   inkscape:version="0.92.4 5da689c313, 2019-01-14"><metadata
   id="metadata127"><rdf:RDF><cc:Work
       rdf:about=""><dc:format>image/svg+xml</dc:format><dc:type
         rdf:resource="http://purl.org/dc/dcmitype/StillImage" /><dc:title></dc:title></cc:Work></rdf:RDF></metadata><defs
   id="defs125" /><sodipodi:namedview
   pagecolor="#ffffff"
   bordercolor="#666666"
   borderopacity="1"
   objecttolerance="10"
   gridtolerance="10"
   guidetolerance="10"
   inkscape:pageopacity="0"
   inkscape:pageshadow="2"
   inkscape:window-width="1920"
   inkscape:window-height="995"
   id="namedview123"
   showgrid="false"
   scale-x="0.2"
   fit-margin-top="0"
   fit-margin-left="0.2"
   fit-margin-right="0"
   fit-margin-bottom="0"
   inkscape:zoom="0.4609375"
   inkscape:cx="-366.85709"
   inkscape:cy="469.24883"
   inkscape:window-x="0"
   inkscape:window-y="0"
   inkscape:window-maximized="1"
   inkscape:current-layer="Layer_1" />
<style
   type="text/css"
   id="style2">
	.st0{fill:#382B73;}
	.st1{fill:#473080;}
	.st2{fill:#136DA0;}
	.st3{fill:#1CAEE4;}
	.st4{fill:#FFFFFF;}
	.st5{fill:#BCBEC0;}
	.st6{fill:#E6E7E8;}
	.st7{fill:#009ADD;}
	.st8{fill:#E7AD27;}
	.st9{fill:#FEDE3A;}
</style>


<path
   d="M 55.234761,1.232665 H 8.687102 V 67.660628 H 55.2385 V 1.232665 h -0.004"
   style="fill:#ffffff;fill-opacity:1;fill-rule:nonzero;stroke:none;stroke-width:0.0338089"
   id="path22-3-6"
   inkscape:connector-curvature="0" /><path
   d="M 55.81355,65.39357 H 9.12591 v -6.364524 h 0.006 V 34.215062 c 0,-1.972908 1.50992,-3.57651 3.37336,-3.57651 h 39.93158 c 1.86333,0 3.37315,1.603602 3.37315,3.57651 v 24.813984 h 0.004 z M 48.3967,3.400363 48.4093,22.170088 c 0,1.632552 -1.65077,3.195156 -3.25632,3.197692 L 21.68189,25.3829 c -1.60358,0.0024 -3.10716,-1.559432 -3.10716,-3.192092 L 18.55973,3.420769 Z M 55.23852,1.63266 C 54.27099,0.654818 52.45173,0 51.09721,0 49.74155,0.0025 5.43812,0.03202 5.43812,0.03202 2.45436,0.03522 0.04,2.494165 0.04,5.525328 l 0.0401,56.764808 c 0,3.032432 2.42142,5.490136 5.40394,5.486332 l 54.01665,-0.03549 c 2.98242,-0.0016 5.40249,-2.46119 5.39802,-5.493726 0,0 -0.032,-48.206317 -0.032,-48.947571 -0.002,-1.196044 -0.28377,-2.181176 -1.043,-2.949376 -0.48886,-0.49485 -5.83668,-5.923594 -8.58521,-8.71764"
   style="fill:#616e7d;fill-opacity:1;fill-rule:nonzero;stroke:none;stroke-width:0.01048029"
   id="path16"
   inkscape:connector-curvature="0" /><path
   d="m 13.958861,39.007919 v 2.715607 H 50.807183 V 39.007919 H 13.958861"
   style="fill:#82bfab;fill-opacity:1;fill-rule:nonzero;stroke:none;stroke-width:0.01277456"
   id="path24-7"
   inkscape:connector-curvature="0" /><path
   d="M 14.07609,44.770373 V 47.48598 H 50.924412 V 44.770373 H 14.07609"
   style="fill:#82bfab;fill-opacity:1;fill-rule:nonzero;stroke:none;stroke-width:0.01277456"
   id="path24-7-5"
   inkscape:connector-curvature="0" /><path
   d="m 14.076082,49.88598 v 2.715607 h 36.84833 V 49.88598 h -36.84833"
   style="fill:#82bfab;fill-opacity:1;fill-rule:nonzero;stroke:none;stroke-width:0.01277456"
   id="path24-7-3"
   inkscape:connector-curvature="0" /><path
   d="M 55.375937,60.179161 H 9.125909 v 5.214409 h 46.253743 v -5.214409 h -0.004"
   style="fill:#aad4c8;fill-opacity:1;fill-rule:nonzero;stroke:none;stroke-width:0.00944203"
   id="path22-3"
   inkscape:connector-curvature="0" /><path
   d="m 37.991031,22.66673 6.208217,-0.0027 c 1.020094,0 1.846979,-0.853715 1.849613,-1.905184 l -0.0096,-12.81051 C 46.037361,6.899684 45.209849,6.047701 44.185856,6.050625 l -6.201792,0.0021 c -1.023992,0 -1.852773,0.852849 -1.852773,1.901502 l 0.009,12.813534 c 0.0017,1.051686 0.830781,1.902152 1.850771,1.898903"
   style="fill:#616e7d;fill-opacity:1;fill-rule:nonzero;stroke:none;stroke-width:0.01068136"
   id="path18-5"
   inkscape:connector-curvature="0" /></svg>