<?xml version="1.0" encoding="iso-8859-1"?>
<!-- Generator: Adobe Illustrator 19.0.0, SVG Export Plug-In . SVG Version: 6.00 Build 0)  -->
<svg version="1.1" id="Capa_1" xmlns="http://www.w3.org/2000/svg" xmlns:xlink="http://www.w3.org/1999/xlink" x="0px" y="0px"
	 viewBox="0 0 512 512" style="enable-background:new 0 0 512 512;" xml:space="preserve">
<g transform="matrix(1.25 0 0 -1.25 0 45)">
	<g>
		<g>
			<path style="fill:#3B88C3;" d="M409.6-328.089c0-25.134-20.378-45.511-45.511-45.511H45.511C20.378-373.6,0-353.222,0-328.089
				V-9.511C0,15.622,20.378,36,45.511,36h318.578C389.222,36,409.6,15.622,409.6-9.511V-328.089z"/>
			<path style="fill:#FFFFFF;" d="M224.404-38.547c25.759,0,75.844-8.465,75.844-39.515c0-12.698-8.818-23.632-21.868-23.632
				c-14.461,0-24.337,12.345-53.976,12.345c-43.736,0-66.321-37.046-66.321-80.077c0-41.973,22.926-77.961,66.321-77.961
				c29.639,0,41.62,14.802,56.092,14.802c15.883,0,23.29-15.861,23.29-23.973c0-33.872-53.271-41.631-79.383-41.631
				c-71.612,0-121.355,56.798-121.355,129.82C103.049-94.992,152.439-38.547,224.404-38.547"/>
		</g>
	</g>
</g>
<g>
</g>
<g>
</g>
<g>
</g>
<g>
</g>
<g>
</g>
<g>
</g>
<g>
</g>
<g>
</g>
<g>
</g>
<g>
</g>
<g>
</g>
<g>
</g>
<g>
</g>
<g>
</g>
<g>
</g>
</svg>
