<?xml version="1.0" encoding="iso-8859-1"?>
<!-- Generator: Adobe Illustrator 19.0.0, SVG Export Plug-In . SVG Version: 6.00 Build 0)  -->
<svg version="1.1" id="Capa_1" xmlns="http://www.w3.org/2000/svg" xmlns:xlink="http://www.w3.org/1999/xlink" x="0px" y="0px"
	 viewBox="0 0 512 512" style="enable-background:new 0 0 512 512;" xml:space="preserve">
<g transform="matrix(1.25 0 0 -1.25 0 45)">
	<g>
		<g>
			<path style="fill:#3B88C3;" d="M409.6-328.089c0-25.134-20.378-45.511-45.511-45.511H45.511C20.378-373.6,0-353.222,0-328.089
				V-9.511C0,15.622,20.378,36,45.511,36h318.578C389.222,36,409.6,15.622,409.6-9.511V-328.089z"/>
			<path style="fill:#FFFFFF;" d="M171.691-195.89h67.026L205.915-93.582h-0.705L171.691-195.89z M167.811-67.822
				c5.996,16.225,19.752,29.275,37.751,29.275c18.694,0,31.755-12.345,37.74-29.275l69.154-191.909
				c2.105-5.643,2.822-10.593,2.822-13.062c0-13.756-11.298-23.279-24.337-23.279c-14.825,0-22.232,7.76-25.759,18.341
				l-10.581,33.166h-98.076l-10.581-32.814c-3.527-10.934-10.945-18.694-25.407-18.694c-14.108,0-26.101,10.581-26.101,24.69
				c0,5.643,1.764,9.876,2.469,11.651L167.811-67.822L167.811-67.822z"/>
		</g>
	</g>
</g>
<g>
</g>
<g>
</g>
<g>
</g>
<g>
</g>
<g>
</g>
<g>
</g>
<g>
</g>
<g>
</g>
<g>
</g>
<g>
</g>
<g>
</g>
<g>
</g>
<g>
</g>
<g>
</g>
<g>
</g>
</svg>
