<?xml version="1.0" encoding="iso-8859-1"?>
<!-- Generator: Adobe Illustrator 19.0.0, SVG Export Plug-In . SVG Version: 6.00 Build 0)  -->
<svg version="1.1" id="Capa_1" xmlns="http://www.w3.org/2000/svg" xmlns:xlink="http://www.w3.org/1999/xlink" x="0px" y="0px"
	 viewBox="0 0 512 512" style="enable-background:new 0 0 512 512;" xml:space="preserve">
<g transform="matrix(1.25 0 0 -1.25 0 45)">
	<g>
		<g>
			<path style="fill:#3B88C3;" d="M409.6-328.089c0-25.134-20.378-45.511-45.511-45.511H45.511C20.378-373.6,0-353.222,0-328.089
				V-9.511C0,15.622,20.378,36,45.511,36h318.578C389.222,36,409.6,15.622,409.6-9.511V-328.089z"/>
			<path style="fill:#FFFFFF;" d="M172.373-247.42h41.631c19.058,0,33.166,10.934,33.166,30.686
				c0,16.589-12.709,27.876-37.399,27.876h-37.399V-247.42z M172.373-142.29h27.523c17.283,0,28.57,10.229,28.57,27.864
				c0,16.577-13.05,25.054-28.57,25.054l-27.523,0V-142.29z M119.467-69.267c0,16.93,11.639,26.453,27.864,26.453h67.732
				c36.682,0,66.332-24.69,66.332-62.089c0-24.69-10.251-41.279-32.825-51.849v-0.717c30.003-4.233,53.623-29.275,53.623-59.961
				c0-49.744-33.155-76.561-81.852-76.561h-72.658c-16.236,0-28.217,10.24-28.217,26.817V-69.267L119.467-69.267z"/>
		</g>
	</g>
</g>
<g>
</g>
<g>
</g>
<g>
</g>
<g>
</g>
<g>
</g>
<g>
</g>
<g>
</g>
<g>
</g>
<g>
</g>
<g>
</g>
<g>
</g>
<g>
</g>
<g>
</g>
<g>
</g>
<g>
</g>
</svg>
